<?xml version="1.0" standalone="no"?>
<!DOCTYPE svg PUBLIC "-//W3C//DTD SVG 20010904//EN"
 "http://www.w3.org/TR/2001/REC-SVG-20010904/DTD/svg10.dtd">
<svg version="1.0" xmlns="http://www.w3.org/2000/svg"
 width="172" height="40" viewBox="0 0 1936.000000 376.000000"
 preserveAspectRatio="xMidYMid meet">

<g transform="translate(0.000000,376.000000) scale(0.100000,-0.100000)"
fill="#000000" stroke="none">
<path d="M3965 3608 c-2 -7 -5 -619 -7 -1360 -2 -740 -5 -1348 -8 -1351 -3 -3
-151 -7 -330 -8 l-325 -4 -2 1360 -3 1360 -343 3 -344 2 -5 -1717 c-3 -945 -3
-1722 0 -1727 7 -12 2052 0 2064 12 4 4 7 780 6 1723 l-3 1714 -348 3 c-273 2
-348 0 -352 -10z m-223 -3065 c17 -15 25 -43 12 -43 -18 0 -44 24 -44 40 0 24
8 25 32 3z"/>
<path d="M5037 3613 c-4 -3 -7 -85 -7 -182 0 -141 4 -191 20 -253 18 -74 19
-80 2 -165 -15 -80 -17 -214 -17 -1468 l0 -1380 1000 4 c595 2 1005 7 1011 12
8 7 13 117 15 367 4 346 0 833 -6 840 -7 8 -649 2 -657 -6 -4 -4 -10 -108 -14
-231 l-5 -224 -325 -3 -325 -4 7 1350 7 1350 -350 0 c-192 0 -353 -3 -356 -7z
m421 -690 c-4 -20 -53 -51 -64 -40 -10 9 35 57 53 57 8 0 13 -8 11 -17z m32
-297 c0 -36 -4 -67 -9 -70 -14 -9 -61 33 -61 54 0 20 46 80 61 80 5 0 9 -29 9
-64z m-282 -1849 c2 -10 -3 -17 -12 -17 -10 0 -16 9 -16 21 0 24 23 21 28 -4z
m1291 -181 c8 -10 8 -16 -1 -23 -15 -12 -95 -53 -103 -53 -13 0 -3 21 27 54
33 38 58 45 77 22z"/>
<path d="M6886 3608 c-3 -7 -7 -142 -10 -300 l-7 -288 138 -1 c76 0 226 -3
333 -5 l195 -4 5 -1416 5 -1417 305 1 c168 0 320 1 337 1 l33 1 2 1418 3 1417
338 3 337 2 0 300 0 300 -1005 0 c-796 0 -1006 -3 -1009 -12z m1164 -244 c0
-54 -41 -87 -55 -44 -7 22 22 69 43 70 6 0 12 -12 12 -26z m-260 -73 c0 -20
-16 -19 -37 1 -35 33 -30 54 7 28 17 -12 30 -25 30 -29z m83 -591 c-1 -36 -21
-54 -40 -38 -17 14 -16 24 3 54 22 33 39 25 37 -16z m-18 -91 c8 -24 -20 -60
-41 -52 -18 7 -18 23 2 51 19 28 31 28 39 1z m112 -361 c18 -18 33 -38 33 -45
0 -18 -8 -16 -40 10 -15 12 -35 27 -45 33 -19 11 -13 34 8 34 6 0 26 -14 44
-32z"/>
<path d="M9970 1900 l0 -1720 753 -2 c413 -2 871 -3 1017 -3 l265 0 6 155 c4
85 5 423 2 750 l-4 595 -122 131 c-67 72 -142 152 -165 178 l-44 47 172 172
172 172 -6 149 c-3 82 -6 362 -6 623 l0 473 -1020 0 -1020 0 0 -1720z m1358
890 l2 -225 -88 -88 -88 -87 -243 2 -243 3 -6 90 c-7 95 -3 515 5 528 2 4 151
6 331 5 l327 -3 3 -225z m-904 -565 c5 -13 -46 -65 -64 -65 -4 0 -14 7 -21 16
-12 14 -9 20 20 45 34 28 55 29 65 4z m86 11 c0 -16 -18 -31 -27 -22 -8 8 5
36 17 36 5 0 10 -6 10 -14z m729 -645 l91 -99 0 -271 0 -271 -335 0 -335 0 0
370 0 370 244 0 244 0 91 -99z m-904 -882 c9 -17 14 -34 10 -37 -10 -11 -48
36 -42 52 9 23 14 20 32 -15z m179 -245 c25 -10 19 -28 -14 -43 -24 -10 -34
-10 -45 -1 -37 31 7 64 59 44z"/>
<path d="M12380 3608 c-3 -372 2 -3423 6 -3427 3 -3 445 -7 981 -9 l976 -2 -6
362 -6 363 -28 7 c-25 6 -929 28 -1145 28 l-88 0 0 365 0 365 343 -3 c269 -1
342 1 341 11 -1 6 -2 165 -2 352 l-2 340 -337 2 -338 3 0 323 0 323 620 5
c341 3 626 7 633 10 10 3 12 61 7 296 l-5 293 -975 3 c-777 2 -975 0 -975 -10z
m1549 -194 c29 -24 44 -74 22 -74 -11 0 -81 80 -81 92 0 16 29 7 59 -18z
m-1099 -114 c13 -25 4 -60 -15 -60 -17 0 -28 34 -20 60 8 26 21 25 35 0z m-47
-252 c7 -45 2 -196 -6 -205 -4 -4 -15 0 -24 9 -12 13 -13 22 -5 45 7 21 6 40
-3 67 -9 24 -10 46 -5 60 5 11 11 29 14 39 9 27 23 20 29 -15z m-99 -669 c-2
-49 -26 -235 -36 -282 -13 -59 -23 -66 -43 -28 -17 34 -20 77 -5 86 6 3 10 27
10 52 0 45 5 68 37 161 16 45 39 52 37 11z m1162 -1826 c1 -16 11 -59 23 -98
12 -38 24 -77 27 -85 2 -8 0 -22 -5 -30 -16 -24 -31 0 -67 105 -32 95 -32 97
-13 116 26 26 34 24 35 -8z"/>
<path d="M14881 3528 c-6 -51 -16 -131 -22 -178 -5 -47 -14 -119 -19 -160 -10
-83 -33 -295 -50 -465 -6 -60 -15 -141 -20 -180 -5 -38 -14 -126 -20 -195 -6
-69 -17 -181 -25 -250 -13 -117 -21 -189 -60 -560 -8 -80 -26 -266 -40 -415
-13 -148 -29 -315 -35 -370 -12 -109 -26 -246 -40 -395 -6 -52 -13 -116 -16
-142 l-7 -48 355 0 355 0 12 72 c11 68 30 241 51 473 9 90 16 151 36 298 l7
48 166 -7 c91 -3 229 -9 306 -13 l139 -6 12 -115 c7 -63 17 -155 23 -205 6
-49 22 -191 37 -315 14 -123 28 -228 30 -232 3 -4 165 -8 361 -8 l356 0 -7 63
c-3 34 -16 159 -27 277 -11 118 -24 244 -29 280 -9 69 -20 160 -45 380 -8 74
-20 173 -25 220 -21 182 -42 371 -55 505 -16 164 -36 341 -65 588 -5 45 -16
141 -24 212 -9 72 -20 168 -26 215 -9 74 -27 230 -61 530 -5 47 -13 108 -17
135 l-7 50 -746 3 -746 2 -12 -92z m483 -397 c30 -31 21 -50 -14 -31 -18 9
-40 40 -40 54 0 15 29 3 54 -23z m414 -161 c1 -19 9 -96 18 -170 8 -74 21
-200 30 -280 8 -80 19 -181 24 -225 6 -44 15 -125 20 -180 5 -55 16 -161 25
-235 8 -74 15 -139 15 -144 0 -5 -37 -6 -82 -3 -46 4 -159 11 -253 18 -93 6
-175 12 -181 14 -8 2 -9 20 -3 57 8 51 57 527 79 768 6 63 15 153 20 200 5 47
12 116 15 153 l7 68 131 -3 132 -3 3 -35z"/>
<path d="M17070 1886 l0 -1726 102 0 c56 0 116 5 135 12 25 9 44 9 80 0 53
-12 353 -25 378 -16 13 5 15 75 15 610 l0 604 148 0 c81 0 152 -4 158 -8 6 -4
41 -115 78 -247 38 -132 81 -280 96 -330 15 -49 35 -117 44 -150 10 -33 48
-157 84 -275 l67 -215 349 -3 c329 -2 348 -1 341 15 -4 10 -17 52 -30 93 -13
41 -34 109 -48 150 -14 41 -42 129 -62 195 -20 66 -54 174 -75 240 -98 309
-144 463 -145 480 0 6 65 10 177 10 l176 0 2 955 c1 525 2 1034 1 1132 l-1
176 -152 6 c-84 3 -550 9 -1035 12 l-883 6 0 -1726z m1240 1584 c0 -5 -4 -10
-10 -10 -5 0 -10 5 -10 10 0 6 5 10 10 10 6 0 10 -4 10 -10z m110 -10 c8 -5
11 -12 8 -16 -10 -9 -38 3 -38 16 0 12 10 13 30 0z m-400 -48 c0 -5 -18 -17
-39 -28 -22 -10 -90 -47 -152 -81 -62 -35 -116 -63 -120 -63 -11 0 -31 78 -24
90 8 13 42 13 50 0 3 -5 15 -10 27 -10 24 0 182 73 192 89 8 13 66 15 66 3z
m150 -16 c0 -3 -4 -8 -10 -11 -5 -3 -10 -1 -10 4 0 6 5 11 10 11 6 0 10 -2 10
-4z m-325 -195 c7 -12 -12 -24 -25 -16 -11 7 -4 25 10 25 5 0 11 -4 15 -9z
m-95 -41 c0 -14 -68 -62 -82 -58 -7 3 4 19 27 41 35 33 55 39 55 17z m-262
-43 c2 -12 -3 -17 -17 -17 -12 0 -21 6 -21 13 0 31 32 34 38 4z m-8 -65 c0 -5
-6 -16 -13 -27 -18 -24 -41 -11 -27 16 10 19 40 27 40 11z m978 -117 c9 -4 12
-107 12 -471 l0 -467 -242 8 c-134 4 -288 10 -343 14 l-100 6 -3 461 -2 461
332 -4 c183 -3 339 -6 346 -8z m-1030 -338 c2 -10 -3 -17 -11 -17 -16 0 -30
24 -19 34 10 10 27 1 30 -17z m-194 -36 c9 -14 -4 -40 -25 -51 -14 -8 -21 -6
-30 12 -10 18 -8 24 7 35 21 15 40 17 48 4z m213 -1918 c5 -15 -36 -28 -49
-15 -6 6 -7 15 -3 22 9 14 47 9 52 -7z m1273 -2 c0 -15 -28 -33 -40 -26 -8 5
-8 11 1 21 13 15 39 19 39 5z m-1323 -227 c-9 -9 -28 6 -21 18 4 6 10 6 17 -1
6 -6 8 -13 4 -17z"/>
<path d="M653 3582 l-413 -2 -1 -1705 c-1 -938 -2 -1711 -3 -1717 -1 -10 131
-12 639 -10 352 2 802 7 1000 10 l360 7 6 215 c3 118 3 367 0 553 l-4 337
-164 0 c-90 0 -205 -4 -256 -10 -51 -5 -125 -11 -165 -13 -40 -3 -75 -7 -78
-10 -3 -3 -9 -97 -12 -209 l-7 -203 -165 -6 c-91 -4 -231 -10 -311 -14 -95 -5
-148 -4 -152 2 -4 6 -4 485 0 1066 l6 1055 66 6 c36 3 179 7 316 8 l250 3 3
-192 2 -193 58 0 c136 0 607 23 612 30 3 5 4 232 2 505 l-2 496 -588 -3 c-323
-2 -773 -4 -999 -6z m485 -162 c32 0 27 -16 -8 -29 -21 -7 -39 -7 -56 0 -22 8
-24 12 -13 25 7 9 21 13 33 10 12 -3 31 -6 44 -6z m158 -24 c7 -18 -24 -66
-41 -66 -8 0 -20 13 -28 29 -14 27 -13 30 7 39 30 15 56 14 62 -2z m-356 -5
c0 -13 -37 -24 -51 -15 -8 4 -7 9 2 15 19 12 49 11 49 0z m-512 -164 c2 -12
-3 -17 -17 -17 -12 0 -21 6 -21 13 0 31 32 34 38 4z m86 -98 c-3 -5 -10 -7
-15 -3 -5 3 -7 10 -3 15 3 5 10 7 15 3 5 -3 7 -10 3 -15z m799 -36 c24 -15
-18 -22 -91 -16 -78 6 -102 16 -64 27 19 5 142 -3 155 -11z m-670 -55 c18 -24
18 -28 5 -47 -15 -22 -15 -22 -47 14 -17 20 -31 43 -31 51 0 25 50 13 73 -18z
m1052 -38 c-3 -5 -10 -10 -16 -10 -5 0 -9 5 -9 10 0 6 7 10 16 10 8 0 12 -4 9
-10z m33 -223 c2 -10 -3 -17 -12 -17 -18 0 -29 16 -21 31 9 14 29 6 33 -14z
m-1078 -367 c0 -5 -4 -10 -10 -10 -5 0 -10 5 -10 10 0 6 5 10 10 10 6 0 10 -4
10 -10z m-122 -303 c-4 -17 -107 -111 -114 -104 -8 8 30 60 67 91 33 28 52 33
47 13z m-138 -476 c0 -45 -20 -59 -45 -31 -23 25 -2 65 38 69 4 1 7 -17 7 -38z
m24 -307 c4 -9 4 -19 1 -22 -7 -8 -35 19 -29 29 8 14 21 11 28 -7z m62 -60
c45 -27 53 -39 32 -47 -23 -8 -88 39 -88 63 0 15 7 13 56 -16z m428 -787 c28
-23 29 -47 2 -47 -18 0 -59 47 -51 59 9 16 16 14 49 -12z m-204 -27 c0 -5 -4
-10 -10 -10 -5 0 -10 5 -10 10 0 6 5 10 10 10 6 0 10 -4 10 -10z"/>
</g>
</svg>
