<?xml version="1.0" standalone="no"?>
<!DOCTYPE svg PUBLIC "-//W3C//DTD SVG 20010904//EN"
 "http://www.w3.org/TR/2001/REC-SVG-20010904/DTD/svg10.dtd">
<svg version="1.0" xmlns="http://www.w3.org/2000/svg"
 width="350" height="345" viewBox="0 0 5466.000000 5350.000000"
 preserveAspectRatio="xMidYMid meet">

<g transform="translate(0.000000,5350.000000) scale(0.100000,-0.100000)"
fill="#000000" stroke="none">
<path d="M30115 53494 c-174 -6 -382 -24 -452 -38 -100 -21 -202 -60 -344
-131 -298 -148 -449 -293 -583 -562 -57 -113 -73 -172 -88 -309 -14 -134 1
-339 32 -448 11 -38 17 -73 13 -79 -3 -5 -24 -7 -47 -4 -220 29 -309 39 -542
61 -386 37 -703 49 -1024 42 -442 -10 -780 -36 -1090 -82 -195 -28 -230 -30
-230 -9 0 8 10 50 23 92 19 69 22 100 21 263 0 340 -59 504 -255 714 -225 241
-529 406 -829 450 -58 8 -202 20 -320 26 -428 20 -744 8 -950 -35 -270 -57
-711 -176 -1080 -291 -281 -88 -2768 -917 -2995 -999 -772 -278 -1208 -486
-1702 -812 -1059 -697 -1682 -1635 -1943 -2923 -73 -359 -109 -670 -131 -1125
-13 -270 -7 -1252 10 -1650 23 -521 43 -920 66 -1350 35 -641 55 -1057 55
-1154 l0 -84 -112 7 c-62 3 -167 13 -233 20 -516 61 -1016 -9 -1530 -211 -637
-252 -1235 -712 -1661 -1279 -357 -475 -563 -1047 -629 -1744 -23 -241 -16
-695 14 -928 132 -1016 515 -1787 1387 -2796 71 -82 164 -190 208 -240 43 -50
123 -147 178 -215 l100 -124 -4 -49 c-7 -65 -101 -253 -323 -643 -717 -1257
-1199 -2278 -1588 -3355 -370 -1026 -580 -1856 -706 -2785 -26 -192 -81 -649
-81 -676 0 -13 51 40 150 155 367 427 737 805 764 779 14 -14 5 -92 -23 -197
-37 -136 -95 -412 -155 -731 -97 -513 -113 -664 -127 -1160 -11 -381 -6 -829
12 -1110 24 -373 89 -733 250 -1380 179 -716 299 -1060 652 -1870 93 -214 176
-405 184 -424 8 -18 16 -31 18 -29 3 2 11 177 20 389 16 408 27 565 51 774 42
365 110 632 165 643 23 4 43 -51 83 -240 131 -604 470 -1532 821 -2243 359
-727 823 -1473 1290 -2075 304 -391 532 -649 934 -1051 404 -404 681 -652
1121 -1004 315 -251 832 -633 944 -696 l39 -22 -6 35 c-3 19 -39 120 -80 224
-185 467 -374 1172 -393 1466 -10 163 0 158 204 -107 184 -237 430 -510 817
-904 382 -389 599 -579 1075 -938 816 -616 1257 -871 3210 -1858 481 -243 904
-458 940 -477 36 -20 148 -79 250 -133 897 -475 1506 -856 2180 -1364 353
-267 597 -469 805 -671 77 -75 162 -151 189 -170 l49 -33 42 22 c58 30 219
158 441 347 686 584 1252 977 2139 1484 586 335 1086 598 2515 1325 1033 525
1191 610 1545 823 813 491 1395 944 2031 1577 314 313 406 412 728 780 241
276 355 397 367 389 64 -39 -208 -1085 -419 -1609 -51 -127 -59 -163 -38 -171
55 -21 1126 802 1601 1231 177 159 808 795 979 985 669 745 1175 1497 1669
2485 355 710 597 1329 812 2075 108 376 145 484 167 488 35 7 82 -152 122
-413 42 -272 56 -446 66 -830 10 -344 18 -435 40 -435 29 0 96 131 248 487
379 884 630 1720 771 2560 92 548 132 1091 111 1512 -33 678 -175 1682 -296
2100 -14 46 -23 86 -20 88 8 8 62 -26 117 -73 104 -92 193 -181 469 -474 153
-162 294 -311 314 -329 l36 -35 0 55 c0 214 -217 1350 -385 2014 -184 726
-293 1061 -587 1795 -529 1320 -1103 2488 -1665 3387 -62 101 -116 196 -119
212 -13 64 40 136 354 478 310 339 506 585 720 906 512 767 765 1418 859 2207
24 202 23 613 -1 805 -58 463 -187 881 -401 1300 -297 582 -749 1064 -1320
1410 -158 95 -460 244 -637 313 -274 107 -403 142 -598 162 -123 12 -723 30
-1023 30 l-208 0 6 213 c12 432 26 784 50 1262 42 830 44 878 56 1295 7 246 9
627 6 970 -9 835 -30 1102 -122 1562 -171 844 -439 1457 -881 2013 -105 131
-438 468 -579 584 -348 287 -760 555 -1150 746 -405 200 -889 377 -2570 941
-1750 588 -2345 760 -2810 814 -97 11 -458 19 -620 14z m-5855 -794 c195 -17
290 -45 290 -85 0 -16 -15 -20 -100 -30 -200 -22 -968 -292 -1440 -505 -188
-85 -707 -349 -965 -490 -309 -170 -558 -300 -574 -300 -18 0 30 58 191 228
138 145 178 195 165 208 -8 8 -259 -78 -487 -166 -213 -83 -622 -233 -890
-327 -1096 -384 -1705 -687 -2205 -1096 -193 -158 -422 -386 -591 -587 -469
-560 -770 -1324 -959 -2435 -45 -266 -64 -415 -75 -593 -9 -148 -14 -182 -31
-182 -15 0 -27 42 -39 141 -18 140 -25 941 -10 1178 70 1160 363 1883 1034
2556 676 676 1657 1116 4417 1979 1110 347 1613 476 1973 506 135 11 170 11
296 0z m6378 -30 c285 -38 593 -108 1032 -235 1242 -359 3129 -1017 3925
-1370 751 -332 1322 -784 1690 -1335 459 -688 649 -1534 621 -2769 -6 -276
-28 -558 -45 -589 -14 -24 -32 79 -86 478 -57 418 -167 926 -301 1385 -167
573 -422 1044 -795 1469 -333 380 -694 648 -1239 921 -367 184 -653 302 -1432
596 -514 193 -808 308 -1176 458 -95 39 -180 71 -188 71 -37 0 18 -87 145
-233 47 -54 107 -125 134 -158 85 -108 67 -106 -143 17 -1010 590 -2334 1171
-2755 1209 -126 11 -159 41 -85 77 86 41 421 45 698 8z m-2018 -2759 c1645
-73 3522 -297 4656 -556 264 -61 425 -105 626 -173 92 -31 170 -53 174 -50 24
25 -64 148 -253 352 -70 76 -155 168 -188 204 l-60 65 170 -88 c453 -235 777
-458 1315 -905 867 -722 1191 -1254 1415 -2320 38 -182 91 -504 109 -660 79
-685 84 -2195 11 -2859 -51 -458 -289 -1146 -514 -1489 -54 -82 -228 -278
-238 -269 -2 2 17 53 42 113 61 144 123 339 178 559 75 296 92 401 107 665 14
229 14 1573 0 1900 -8 213 -45 744 -53 774 -2 4 -45 -81 -96 -190 -148 -317
-273 -547 -369 -683 -25 -36 -47 -60 -50 -53 -2 6 15 85 37 174 92 375 122
614 142 1149 12 312 6 534 -17 687 -33 222 -105 490 -191 707 -303 772 -857
1255 -1794 1568 -183 61 -318 97 -324 87 -8 -13 52 -89 174 -222 62 -67 142
-161 177 -208 111 -149 220 -383 239 -513 7 -44 6 -49 -11 -45 -10 2 -41 40
-70 88 -83 135 -262 303 -494 462 -191 132 -377 224 -676 336 -597 223 -1296
353 -2614 487 -1138 115 -1894 155 -2890 155 -887 0 -1638 -32 -2650 -115
-2296 -189 -3372 -498 -4020 -1155 -117 -119 -218 -210 -233 -210 -39 0 64
238 180 415 89 136 140 201 258 330 133 146 165 184 165 195 0 14 -476 -150
-641 -220 -458 -195 -821 -443 -1047 -714 -214 -257 -400 -632 -508 -1026
-107 -389 -147 -760 -125 -1165 28 -496 97 -995 165 -1194 14 -41 24 -77 21
-80 -11 -10 -54 46 -110 144 -57 99 -251 485 -354 705 l-55 115 -7 -120 c-5
-66 -17 -214 -29 -330 -38 -389 -41 -478 -47 -1110 -5 -617 3 -1003 28 -1253
25 -255 101 -582 215 -921 41 -123 73 -225 71 -227 -2 -2 -31 21 -65 52 -175
158 -433 686 -542 1109 -162 626 -206 1307 -159 2435 29 702 106 1281 250
1880 180 750 411 1152 997 1737 528 527 1086 940 1663 1229 82 40 151 74 153
74 3 0 -82 -87 -188 -192 -182 -183 -303 -332 -293 -362 2 -6 15 -12 28 -14
14 -2 214 45 444 103 446 112 855 199 1255 264 1235 203 2745 334 4370 381
375 11 1828 4 2140 -9z m10971 -7910 c355 -57 623 -147 876 -291 173 -99 273
-174 454 -336 418 -374 684 -807 783 -1274 46 -220 51 -277 51 -635 -1 -396
-5 -427 -105 -725 -126 -379 -340 -810 -520 -1048 -61 -81 -137 -152 -162
-152 -20 0 1 116 71 392 96 377 106 445 106 708 -1 185 -4 230 -23 319 -53
242 -171 523 -293 696 -82 116 -269 302 -384 384 -114 80 -323 183 -440 216
-49 14 -145 33 -212 42 -68 10 -123 20 -123 23 0 12 174 77 246 94 220 49 513
40 709 -21 112 -35 234 -86 291 -122 95 -61 78 8 -42 170 -299 402 -696 574
-1279 556 -260 -8 -418 -45 -633 -147 -280 -133 -516 -327 -1092 -895 -212
-209 -406 -397 -432 -419 -46 -37 -49 -38 -72 -23 -80 53 -485 454 -516 511
-19 36 -5 47 68 57 83 12 140 32 270 95 125 62 361 215 492 320 109 87 279
260 378 383 213 265 317 479 417 863 l42 163 164 37 c90 20 211 48 269 62 99
24 117 25 310 21 142 -2 244 -10 331 -24z m-24016 -35 c185 -28 276 -62 313
-113 11 -16 42 -82 70 -148 193 -462 392 -779 665 -1061 259 -267 508 -426
867 -554 79 -28 150 -55 158 -59 9 -5 -21 -37 -100 -106 -62 -55 -172 -153
-244 -218 -224 -201 -279 -235 -333 -200 -16 10 -60 54 -98 98 -37 44 -184
200 -325 347 -562 581 -812 790 -1090 910 -229 99 -400 137 -638 145 -200 6
-324 -8 -494 -59 -334 -98 -585 -291 -840 -646 l-38 -52 78 36 c217 99 310
124 542 145 261 23 491 -4 627 -72 44 -23 84 -44 88 -48 4 -5 -34 -14 -85 -20
-292 -39 -467 -98 -663 -226 -377 -244 -642 -688 -719 -1201 -35 -230 -30
-467 14 -714 19 -105 32 -153 104 -385 21 -66 40 -142 43 -169 6 -48 6 -48
-16 -35 -72 45 -308 388 -428 625 -127 248 -190 412 -243 626 -58 237 -65 310
-64 693 0 357 11 498 49 692 70 349 318 776 640 1098 207 206 419 357 690 490
253 125 412 172 650 194 153 14 700 6 820 -13z m19486 -1981 c143 -73 475
-268 622 -367 563 -379 1351 -1039 1986 -1663 339 -333 701 -718 688 -731 -8
-9 -104 29 -257 101 -503 236 -1634 628 -1815 629 -52 1 -69 -4 -119 -34 -32
-19 -88 -61 -124 -93 -261 -226 -378 -291 -567 -318 -129 -18 -324 17 -309 55
3 9 46 45 95 82 234 174 319 339 319 620 0 249 -83 454 -282 691 -142 170
-382 354 -618 473 -63 32 -357 160 -367 160 -2 0 45 -53 105 -117 141 -151
174 -191 234 -283 195 -295 241 -618 124 -855 -65 -130 -156 -218 -301 -290
-141 -70 -176 -75 -690 -85 -247 -5 -499 -14 -560 -20 -380 -38 -642 -107
-910 -241 -151 -75 -359 -209 -384 -248 l-16 -24 65 6 c36 3 119 19 185 36
221 54 247 56 595 55 583 -1 900 -62 1259 -239 328 -163 630 -398 1121 -871
321 -309 499 -467 691 -611 475 -356 877 -433 1328 -252 252 101 456 306 538
540 74 213 71 537 -7 750 -36 100 -73 166 -160 289 -69 98 -106 160 -94 160
20 0 156 -84 284 -176 332 -237 1079 -842 1309 -1059 535 -506 1626 -2434
2246 -3970 156 -384 472 -1279 463 -1307 -2 -6 -35 28 -74 77 -38 48 -103 131
-145 184 -299 379 -1047 1071 -1158 1071 -19 0 -21 -4 -15 -22 10 -35 40 -91
112 -212 289 -486 757 -1740 967 -2591 83 -333 155 -765 209 -1255 51 -450 58
-566 62 -965 l4 -390 -89 255 c-133 382 -229 616 -362 881 -128 258 -321 589
-494 849 -101 152 -149 210 -161 197 -10 -9 11 -109 61 -297 100 -375 149
-700 175 -1155 29 -514 19 -1251 -20 -1597 -92 -805 -319 -1668 -665 -2528
-123 -306 -204 -485 -357 -790 -162 -324 -284 -537 -453 -790 -190 -285 -590
-829 -601 -817 -5 4 41 140 126 372 185 509 372 1268 425 1720 17 153 20 319
5 310 -15 -9 -95 -172 -221 -449 -238 -520 -513 -1003 -814 -1425 -203 -285
-405 -512 -870 -976 -447 -447 -733 -704 -1005 -901 -392 -284 -1182 -775
-1207 -751 -8 8 36 86 142 252 323 505 567 1056 745 1680 146 514 214 956 230
1493 9 324 16 420 31 443 9 14 79 -7 372 -115 135 -50 255 -70 327 -55 201 41
557 257 755 458 33 34 65 61 71 61 8 0 6 -18 -7 -61 -25 -80 -25 -145 0 -158
10 -6 21 -8 24 -5 3 3 15 3 26 -1 30 -9 26 -41 -9 -82 -34 -39 -36 -50 -14
-101 9 -20 16 -63 16 -94 1 -32 5 -58 9 -58 14 0 98 106 114 143 30 72 15 159
-97 567 -88 325 -130 417 -237 527 -116 118 -219 158 -394 151 -209 -8 -214
-24 -106 -317 86 -231 78 -340 -29 -411 -98 -65 -256 -92 -379 -67 -105 23
-178 62 -254 137 -67 66 -124 160 -148 245 -22 74 -31 195 -21 266 34 237 160
358 705 681 201 119 445 280 605 399 144 108 250 179 317 213 57 28 70 31 93
16 11 -7 6 -18 -29 -60 -56 -67 -65 -100 -45 -170 8 -30 27 -72 40 -93 21 -33
30 -38 57 -35 26 2 35 11 55 49 13 26 33 96 44 155 31 172 48 231 79 274 36
49 70 59 116 35 54 -30 182 -170 211 -233 25 -52 27 -68 27 -182 0 -135 -20
-232 -70 -347 -38 -84 -64 -113 -197 -221 -66 -53 -129 -104 -139 -112 -17
-14 -15 -19 41 -93 158 -211 237 -463 227 -722 -10 -248 -110 -475 -210 -475
-58 0 -108 -48 -182 -174 -53 -90 -126 -170 -192 -209 -68 -39 -92 -70 -104
-133 -10 -53 -32 -84 -61 -84 -24 0 -23 -17 2 -25 34 -11 42 -40 35 -120 -7
-71 -7 -74 19 -90 33 -22 151 -32 198 -16 67 22 221 212 387 480 89 144 391
740 480 949 75 175 157 413 215 622 130 469 160 736 160 1405 0 537 -17 720
-99 1046 -69 272 -138 459 -171 459 -24 0 -36 -18 -118 -180 -41 -80 -106
-194 -145 -254 -39 -60 -71 -112 -71 -116 0 -16 83 -81 202 -161 200 -134 260
-201 274 -308 6 -46 5 -51 -12 -51 -11 0 -65 29 -121 65 -57 35 -103 62 -103
59 0 -3 36 -47 80 -99 113 -135 159 -211 111 -185 -30 15 -41 12 -51 -15 -10
-28 -17 -29 -53 -16 -37 14 -39 -5 -11 -75 13 -32 24 -60 24 -62 0 -16 -83 60
-307 279 -146 142 -268 259 -272 259 -4 0 -107 -95 -231 -211 -420 -396 -568
-523 -750 -641 -260 -170 -1302 -805 -1382 -844 -21 -10 -41 -14 -45 -10 -10
10 -17 265 -8 321 9 64 45 101 188 191 284 178 774 545 1087 814 626 536 1227
1306 1626 2085 160 311 231 481 359 855 82 241 135 372 150 374 15 2 41 -113
70 -320 22 -150 26 -213 23 -309 -5 -119 -6 -122 -90 -375 l-84 -256 88 -264
c377 -1128 417 -1328 448 -2260 13 -397 25 -569 38 -582 27 -27 149 459 217
857 85 503 119 900 119 1410 0 362 -10 534 -45 780 -68 474 -259 1156 -529
1890 -124 338 -148 439 -165 700 -8 127 -35 770 -34 830 l0 50 52 -56 c29 -31
122 -130 207 -220 252 -267 440 -492 624 -749 118 -165 189 -241 208 -222 38
38 -56 410 -203 806 -180 482 -505 1164 -713 1491 -65 103 -180 263 -322 445
-626 809 -1183 1295 -1999 1745 -133 73 -522 267 -670 334 l-69 32 415 -418
c504 -509 706 -741 943 -1083 281 -406 486 -832 626 -1298 68 -230 110 -404
116 -487 5 -66 4 -69 -11 -50 -9 11 -51 88 -92 170 -157 311 -256 469 -426
677 -113 139 -262 291 -279 286 -17 -6 -24 -685 -8 -808 15 -111 33 -150 128
-273 216 -280 419 -687 493 -992 62 -258 43 -833 -42 -1215 -54 -247 -46 -251
-95 53 -65 413 -116 625 -201 840 -49 126 -142 308 -208 406 -58 87 -253 331
-264 331 -13 0 -354 -698 -348 -714 3 -8 53 -84 110 -169 227 -336 332 -609
399 -1032 20 -126 16 -514 -6 -660 -41 -269 -115 -505 -250 -790 l-67 -140 8
160 c14 288 8 746 -10 894 -54 424 -171 766 -358 1043 -35 51 -125 167 -202
257 l-28 33 -254 -203 c-166 -134 -254 -211 -254 -223 -1 -10 38 -78 85 -150
151 -229 229 -394 284 -601 56 -209 64 -286 64 -570 0 -277 -11 -390 -59 -631
-95 -468 -321 -825 -810 -1276 -156 -144 -221 -196 -232 -184 -12 11 17 77 94
213 208 368 286 682 312 1255 6 123 13 265 17 316 l5 93 -124 -65 c-239 -127
-420 -140 -610 -45 -79 40 -204 163 -242 239 -39 77 -45 160 -16 226 53 119
105 164 192 164 66 0 127 -27 237 -104 130 -91 211 -107 309 -62 62 29 138 97
163 146 91 180 -17 474 -223 610 -206 135 -536 127 -759 -19 -74 -48 -163
-137 -217 -215 -81 -117 -176 -354 -207 -512 -18 -96 -18 -259 0 -344 42 -197
143 -381 332 -610 190 -230 288 -419 328 -630 16 -85 21 -261 10 -368 l-7 -61
-109 153 c-133 187 -197 265 -386 470 -243 262 -576 568 -780 718 -155 113
-157 118 -137 327 8 80 37 448 65 816 28 369 53 684 55 701 l5 32 253 5 c276
5 419 24 659 86 349 92 746 260 1028 436 227 142 477 357 642 554 278 331 472
769 563 1265 122 668 -24 1406 -396 2004 -110 177 -347 458 -619 733 -135 136
-185 178 -197 165 -11 -11 14 -92 69 -221 281 -663 302 -1337 63 -2054 -81
-241 -217 -490 -369 -676 -471 -575 -1020 -885 -1751 -991 -78 -11 -221 -17
-492 -21 -211 -3 -383 -6 -383 -7 0 -1 14 -37 31 -81 162 -419 240 -1301 164
-1855 -41 -298 -116 -690 -179 -935 -40 -151 -52 -185 -66 -185 -15 0 -27 35
-80 245 -67 260 -136 485 -304 990 -448 1340 -1118 3137 -1429 3830 -100 224
-147 341 -147 367 0 16 4 16 54 -2 30 -10 112 -44 183 -75 331 -147 713 -234
983 -222 133 5 292 39 473 98 190 63 286 113 263 137 -4 4 -173 7 -374 8 -233
0 -381 4 -405 11 -47 14 -87 40 -87 57 0 18 61 43 154 62 302 60 663 298 923
607 108 130 173 233 265 424 l79 166 177 -7 c97 -3 252 -9 344 -13 145 -5 168
-4 173 9 18 46 -110 222 -295 409 -332 334 -645 523 -968 585 -205 39 -229 59
-115 94 312 96 897 105 1263 19 179 -41 313 -94 423 -166 82 -52 137 -67 137
-36 0 47 -121 211 -270 367 -404 422 -1106 721 -1630 692 -271 -14 -656 -104
-959 -223 -214 -83 -455 -221 -901 -513 -270 -177 -434 -276 -550 -335 -203
-102 -470 -149 -625 -110 -83 21 -266 113 -348 175 -133 100 -241 267 -288
445 -30 114 -38 356 -15 480 96 518 489 1074 1013 1434 109 74 164 128 140
137 -53 20 -511 -136 -792 -271 -415 -200 -818 -634 -1034 -1115 -22 -48 -64
-161 -94 -251 -64 -190 -84 -239 -96 -239 -42 0 -220 405 -282 645 -20 76 -24
114 -24 245 1 149 2 159 33 249 79 227 247 492 591 926 212 270 460 532 686
729 397 346 962 762 1169 861 330 157 769 213 1596 202 421 -5 443 -8 580 -77
310 -156 558 -393 666 -636 53 -119 68 -198 66 -347 0 -76 3 -149 8 -162 22
-59 78 -51 210 28 219 132 333 323 333 557 0 227 -93 425 -312 667 l-101 112
33 6 c17 2 122 14 231 25 363 37 1158 149 1174 165 13 13 59 2 123 -30z
m-15405 -10 c147 -14 1228 -148 1301 -161 l32 -6 -110 -90 c-170 -139 -260
-267 -311 -444 -33 -115 -33 -307 0 -414 36 -113 79 -187 158 -267 78 -79 166
-129 283 -159 57 -14 65 -14 79 0 19 19 30 93 31 208 3 369 261 733 656 929
131 64 304 99 590 119 501 33 1143 -30 1483 -146 295 -101 688 -363 1147 -764
177 -155 583 -562 740 -743 398 -457 687 -900 730 -1119 40 -203 3 -471 -102
-733 -61 -152 -176 -355 -202 -355 -13 0 -46 84 -81 205 -48 165 -95 285 -171
436 -124 246 -314 505 -457 624 -199 166 -563 374 -838 479 -194 73 -474 143
-474 118 0 -13 81 -76 193 -151 217 -145 540 -475 707 -722 292 -430 372 -999
191 -1374 -100 -209 -262 -342 -476 -392 -63 -14 -121 -18 -270 -18 -169 0
-199 3 -270 23 -152 44 -322 141 -730 417 -712 481 -1053 642 -1505 712 -162
25 -539 25 -700 0 -380 -59 -695 -196 -1009 -440 -193 -150 -582 -560 -568
-600 7 -21 23 -16 107 33 189 112 437 182 775 221 162 19 551 16 705 -5 211
-28 392 -79 415 -116 10 -16 -33 -27 -130 -33 -306 -20 -776 -275 -1119 -607
-166 -161 -326 -371 -326 -428 0 -23 2 -24 43 -19 23 4 67 13 97 22 69 19 273
35 457 35 l143 0 79 -165 c44 -91 109 -209 144 -263 127 -194 308 -380 515
-529 113 -82 322 -185 442 -219 120 -34 192 -69 188 -92 -10 -50 -153 -66
-513 -57 -163 4 -290 3 -304 -2 l-24 -10 34 -25 c49 -38 166 -82 310 -117 199
-48 323 -63 524 -63 369 1 522 40 943 242 103 49 188 86 190 80 2 -5 -28 -76
-66 -157 -155 -330 -362 -846 -697 -1738 -546 -1453 -955 -2640 -1126 -3265
-39 -146 -80 -280 -89 -299 -16 -32 -18 -33 -28 -15 -21 40 -129 547 -167 784
-49 313 -68 798 -46 1165 24 378 76 806 121 982 11 42 20 82 20 89 0 33 -43
38 -390 45 -358 8 -472 16 -650 51 -328 62 -785 278 -1098 517 -434 331 -730
782 -871 1327 -162 628 -125 1223 116 1867 30 81 53 151 49 154 -30 30 -471
-418 -653 -665 -284 -383 -472 -837 -550 -1327 -22 -139 -25 -561 -5 -705 30
-213 90 -450 161 -642 206 -555 534 -969 1021 -1293 325 -215 744 -403 1105
-495 215 -55 339 -71 595 -79 192 -5 230 -9 253 -24 66 -43 74 -90 87 -517 13
-445 36 -749 80 -1060 17 -120 32 -98 -207 -311 -256 -227 -789 -755 -927
-919 -54 -63 -118 -146 -143 -185 -91 -140 -118 -179 -130 -183 -7 -2 -18 9
-24 25 -15 39 -4 386 15 482 24 116 117 282 257 456 160 200 331 497 390 675
84 260 -51 720 -284 967 -151 160 -295 212 -597 216 -117 2 -128 0 -180 -25
-30 -15 -88 -58 -129 -95 -168 -154 -249 -358 -207 -523 29 -115 102 -186 212
-211 75 -17 139 2 328 97 123 62 156 74 197 74 40 0 54 -5 84 -32 61 -52 89
-120 89 -208 0 -62 -4 -84 -26 -125 -55 -104 -147 -195 -261 -256 -77 -41
-146 -59 -228 -59 -105 0 -172 19 -306 87 -69 34 -131 63 -138 63 -7 0 -16 -7
-19 -16 -25 -65 -12 -628 20 -873 32 -247 221 -704 375 -906 66 -86 97 -141
86 -152 -28 -27 -449 362 -661 612 -95 112 -215 295 -286 439 -143 288 -218
643 -227 1076 -6 273 7 401 61 613 59 227 165 464 306 680 38 60 68 112 65
117 -3 4 -31 23 -63 40 -72 41 -191 134 -321 250 -55 49 -105 90 -110 90 -18
0 -199 -209 -254 -293 -145 -223 -260 -498 -306 -737 -58 -294 -86 -645 -78
-982 3 -142 2 -258 -3 -258 -54 0 -213 377 -262 623 -20 101 -23 141 -23 412
0 407 28 613 121 894 54 163 191 446 301 621 106 169 106 158 -19 415 -98 201
-138 299 -138 340 0 12 -5 36 -11 54 -34 96 -174 -34 -351 -326 -209 -343
-337 -704 -403 -1131 -29 -186 -42 -248 -55 -271 -32 -57 -105 348 -131 725
-36 521 112 981 497 1556 l146 217 9 188 c16 374 30 785 26 789 -6 7 -298
-330 -386 -444 -103 -135 -226 -323 -311 -477 -92 -166 -129 -225 -142 -225
-33 0 32 311 115 555 125 370 351 822 605 1210 252 386 459 632 883 1050 216
213 330 313 450 397 130 92 110 104 -57 32 -134 -57 -399 -189 -599 -299 -889
-488 -1478 -1007 -2072 -1826 -161 -220 -341 -491 -463 -696 -117 -194 -312
-580 -390 -768 -168 -409 -430 -1232 -430 -1350 0 -19 5 -37 12 -41 16 -10 41
24 170 231 62 99 155 236 207 305 277 369 724 861 754 831 16 -16 14 -645 -2
-861 -19 -250 -39 -325 -183 -694 -263 -676 -431 -1312 -507 -1931 -40 -325
-46 -431 -46 -870 1 -447 9 -584 56 -940 61 -462 206 -1145 254 -1194 31 -32
38 34 46 449 4 223 10 446 14 495 48 685 148 1106 453 1918 l101 269 -44 89
c-87 172 -125 375 -125 664 0 183 17 302 54 386 24 54 51 87 62 76 4 -3 41
-116 84 -250 117 -371 191 -554 355 -886 355 -719 661 -1138 1290 -1767 521
-522 894 -822 1453 -1169 l142 -88 0 -178 c0 -148 -3 -180 -16 -193 -13 -14
-20 -14 -47 -2 -106 44 -1054 608 -1308 777 -288 193 -370 260 -764 629 -133
124 -253 236 -268 250 l-28 24 -104 -104 c-58 -58 -105 -109 -105 -114 0 -5
16 -6 35 -3 23 4 35 2 35 -6 0 -13 -447 -464 -453 -457 -2 3 1 51 8 108 7 56
11 111 8 122 -6 21 -10 23 -60 20 -26 -1 -35 4 -44 24 -15 31 3 80 37 102 29
20 91 111 100 148 7 28 6 29 -22 22 -36 -9 -84 -54 -84 -79 0 -35 -25 -11 -28
28 -7 80 52 174 102 161 28 -7 56 15 56 45 0 37 68 95 180 154 144 77 148 81
125 142 -32 87 -244 461 -290 511 -9 10 -21 -13 -58 -110 -118 -312 -207 -777
-237 -1243 -54 -835 129 -1713 517 -2478 86 -171 133 -228 177 -220 l28 6 -7
-60 c-5 -47 -2 -72 15 -124 56 -171 222 -451 350 -591 39 -43 80 -76 116 -94
49 -24 62 -26 121 -20 88 9 129 27 137 61 4 15 4 35 1 45 -3 10 0 34 8 52 14
33 33 46 132 89 54 23 53 24 -17 34 -64 8 -101 42 -144 129 -19 39 -46 81 -59
93 -15 15 -26 40 -31 69 -11 73 2 204 26 264 23 60 21 93 -11 185 -22 64 -24
85 -6 85 16 0 108 -94 180 -185 95 -121 145 -163 212 -180 33 -9 126 -47 207
-86 274 -130 320 -129 729 16 116 41 216 75 223 75 22 0 35 -160 56 -660 22
-527 77 -852 226 -1341 160 -526 488 -1258 744 -1659 99 -155 124 -204 105
-208 -36 -8 -381 197 -747 444 -592 399 -944 688 -1444 1188 -536 537 -934
1028 -1216 1501 -158 265 -387 710 -546 1060 -87 191 -132 277 -149 283 -54
17 68 -766 188 -1213 67 -249 170 -566 269 -830 81 -215 110 -301 110 -328 0
-19 -1 -19 -26 4 -57 52 -382 502 -548 757 -1145 1762 -1689 3823 -1516 5732
27 297 98 789 146 1015 70 332 83 399 78 404 -15 15 -173 -190 -292 -380 -148
-235 -365 -661 -505 -989 -41 -96 -109 -276 -152 -400 -77 -223 -141 -380
-155 -380 -54 0 11 1022 106 1665 143 971 439 1995 834 2890 34 77 126 271
205 430 146 295 205 426 205 451 0 58 -182 -85 -564 -444 -340 -320 -623 -627
-754 -819 -34 -50 -71 -98 -82 -108 -19 -17 -19 -16 2 56 46 166 341 998 486
1375 104 271 203 488 427 939 288 581 577 1117 882 1638 450 769 703 1114
1043 1425 285 261 1017 845 1284 1025 89 60 173 103 183 94 9 -10 -8 -46 -61
-124 -100 -149 -154 -268 -200 -444 -53 -197 -53 -313 -1 -494 51 -180 138
-329 264 -456 131 -130 299 -225 488 -276 89 -24 114 -27 278 -27 162 1 190 3
277 27 344 92 558 243 1152 813 629 604 886 809 1237 983 341 170 615 228
1120 238 336 7 430 -1 711 -57 213 -43 258 -48 258 -26 0 41 -352 249 -595
351 -275 116 -401 133 -1130 160 -757 27 -833 39 -958 143 -99 81 -174 208
-202 340 -20 98 -20 309 1 410 36 175 123 323 308 521 144 155 153 190 37 151
-225 -76 -528 -271 -749 -485 -158 -151 -203 -216 -272 -391 -77 -194 -96
-397 -51 -544 51 -165 115 -260 312 -464 l134 -139 -215 6 c-238 6 -285 14
-409 73 -99 46 -172 100 -327 239 -148 134 -183 155 -253 155 -104 0 -478
-113 -916 -277 -379 -142 -593 -232 -974 -412 -118 -56 -216 -100 -217 -98
-11 11 347 399 615 667 581 579 1044 986 1585 1394 386 291 867 620 1011 690
117 58 160 63 391 41z m6720 -607 c195 -199 359 -400 623 -765 152 -212 191
-259 212 -261 36 -4 99 67 252 282 255 360 456 614 626 788 l124 128 426 -1
c234 -1 449 -4 478 -7 l52 -7 -87 -70 c-114 -92 -717 -688 -893 -883 -445
-492 -731 -891 -890 -1244 -29 -65 -55 -118 -59 -118 -3 0 -39 62 -80 138 -41
75 -103 184 -138 242 -137 226 -420 595 -707 925 -215 246 -620 647 -795 787
-80 64 -165 136 -189 161 l-44 46 26 6 c53 14 261 22 573 24 l321 1 169 -172z
m-8320 -2252 c58 -27 119 -94 136 -148 15 -52 1 -80 -83 -165 -38 -39 -69 -75
-69 -82 0 -31 118 0 375 99 383 147 745 249 745 210 0 -28 -346 -363 -591
-573 -210 -179 -274 -224 -364 -253 -107 -35 -287 -44 -390 -20 -160 38 -292
134 -373 271 -80 137 -80 198 4 372 55 116 131 198 234 252 92 49 133 60 235
60 74 1 99 -3 141 -23z m18566 -10 c99 -19 167 -46 229 -92 105 -77 216 -242
226 -338 16 -135 -132 -378 -275 -454 -176 -94 -445 -80 -662 34 -197 104
-894 756 -842 788 36 22 673 -189 929 -308 115 -53 173 -68 173 -46 0 5 -29
41 -63 79 -80 87 -98 138 -73 204 47 123 171 169 358 133z m-9346 -1323 c74
-103 181 -224 236 -266 91 -68 230 -149 468 -272 262 -135 376 -203 518 -309
352 -262 578 -593 816 -1193 88 -223 130 -354 314 -983 286 -972 560 -1876
590 -1939 l17 -36 3 60 c6 97 5 102 -203 1855 -41 349 -75 642 -75 652 0 86
146 -125 310 -447 501 -987 1322 -3472 1664 -5042 125 -572 142 -691 157
-1077 38 -1031 -118 -2253 -352 -2754 -52 -112 -109 -191 -211 -288 -186 -179
-404 -292 -607 -316 -143 -17 -231 2 -610 126 -514 169 -922 274 -1661 425
-432 88 -603 134 -735 196 -100 48 -148 93 -190 178 -104 213 -48 497 132 675
55 54 86 74 226 141 89 43 254 116 367 161 225 90 460 200 603 281 632 359
989 819 1167 1506 96 369 115 982 44 1390 -8 46 -28 127 -45 181 -77 241 -262
665 -309 707 l-23 20 6 -110 c3 -60 14 -159 23 -220 10 -65 18 -171 18 -260 1
-132 -1 -150 -16 -153 -11 -2 -30 17 -58 59 -54 82 -177 226 -276 324 -312
309 -999 626 -1541 711 -147 23 -478 28 -958 15 -987 -26 -1137 -54 -1607
-293 -366 -186 -626 -395 -806 -649 -90 -127 -134 -175 -151 -165 -16 11 -13
74 13 287 28 221 50 458 44 464 -8 8 -237 -451 -272 -546 -49 -132 -83 -269
-107 -424 -27 -170 -35 -531 -20 -805 43 -768 171 -1094 601 -1533 342 -351
631 -532 1303 -816 252 -106 386 -179 478 -258 113 -96 186 -208 210 -321 14
-68 6 -216 -15 -283 -35 -111 -100 -205 -165 -238 -93 -47 -400 -128 -956
-251 -864 -192 -1082 -252 -1550 -426 -270 -100 -387 -130 -466 -120 -203 27
-452 153 -679 344 -169 141 -249 259 -314 462 -98 302 -173 825 -252 1750 -25
287 -25 824 -1 1005 221 1649 1323 5157 1951 6212 87 147 163 253 181 253 21
0 19 -35 -15 -265 -109 -742 -313 -2396 -296 -2412 25 -26 67 105 631 1956
146 481 291 941 321 1022 245 663 543 1049 1051 1365 54 34 188 108 298 166
313 164 447 251 572 371 75 72 113 127 137 200 9 29 22 20 72 -50z m-5135
-1189 c11 -10 18 -38 21 -83 6 -87 48 -179 123 -271 51 -64 146 -145 208 -176
68 -36 182 -55 387 -65 323 -16 422 -36 530 -108 11 -8 -15 -24 -115 -72 -280
-133 -422 -171 -635 -170 -330 0 -603 152 -796 442 -35 52 -82 134 -104 182
-37 79 -80 217 -80 257 0 35 35 50 151 65 209 27 279 26 310 -1z m10505 5 c73
-14 89 -35 89 -118 -1 -78 -21 -142 -84 -272 -132 -267 -281 -427 -479 -510
-217 -90 -514 -76 -780 37 -176 75 -321 171 -310 206 2 7 22 22 44 33 35 18
69 20 349 27 171 3 333 11 360 17 206 45 336 131 399 265 13 28 33 94 45 147
30 141 45 168 96 182 28 8 209 -2 271 -14z m-14805 -1510 c113 -80 121 -223
15 -273 -86 -41 -198 2 -237 89 -22 50 -21 56 34 133 60 83 120 100 188 51z
m18936 -1 c34 -38 43 -64 43 -125 0 -72 -25 -118 -77 -140 -50 -20 -105 -4
-155 47 -35 35 -38 42 -38 95 0 55 2 60 44 101 41 42 46 44 103 44 49 0 63 -4
80 -22z m-18817 -881 c77 -45 110 -106 110 -202 0 -109 -41 -183 -125 -228
-32 -18 -57 -22 -130 -22 -114 0 -161 23 -219 107 -44 65 -59 143 -36 198 18
43 104 118 175 151 86 41 152 40 225 -4z m18798 7 c87 -43 151 -136 152 -219
0 -48 -44 -130 -92 -170 -18 -16 -57 -39 -87 -53 -45 -21 -63 -24 -113 -18
-228 23 -313 261 -148 410 89 80 192 98 288 50z m-511 -909 c46 -20 119 -90
143 -139 26 -55 27 -145 0 -203 -28 -63 -96 -122 -207 -180 l-99 -52 -76 77
c-42 42 -86 96 -97 120 -68 136 -35 284 78 350 87 51 177 61 258 27z m-17819
-20 c104 -47 145 -111 144 -226 0 -150 -122 -299 -244 -299 -64 0 -117 28
-197 104 -157 149 -161 225 -23 369 72 75 103 88 189 83 49 -3 91 -13 131 -31z
m929 -704 c75 -36 117 -88 134 -168 30 -145 -39 -288 -165 -344 -40 -18 -69
-23 -136 -23 -131 0 -215 46 -278 154 -23 37 -27 57 -27 115 1 84 31 151 94
208 110 99 244 120 378 58z m16019 10 c71 -32 112 -67 156 -135 36 -55 39 -66
34 -107 -7 -62 -55 -167 -100 -216 -58 -65 -121 -87 -246 -87 -93 -1 -110 2
-147 23 -72 41 -152 180 -153 265 0 107 127 243 257 276 56 14 143 5 199 -19z
m-1216 -341 c187 -94 222 -242 94 -389 -52 -60 -119 -101 -164 -101 -132 0
-270 132 -270 259 0 107 47 177 155 227 38 18 83 33 98 34 15 0 54 -13 87 -30z
m-13658 -12 c116 -50 149 -167 87 -307 -41 -94 -106 -135 -214 -135 -103 0
-185 46 -226 126 -24 46 -25 143 -3 196 54 130 210 183 356 120z m6983 -968
c719 -61 1305 -256 1570 -524 77 -78 143 -171 147 -208 3 -20 -2 -23 -31 -26
-40 -4 -107 19 -291 101 -292 129 -474 183 -715 213 -287 34 -1376 34 -1725 0
-274 -28 -460 -65 -654 -133 -95 -33 -154 -58 -433 -187 -67 -31 -127 -56
-133 -56 -45 0 89 202 211 316 272 254 823 452 1399 503 138 12 515 12 655 1z
m-1753 -2359 c163 -42 287 -131 387 -280 115 -169 205 -447 150 -459 -27 -5
-987 482 -1081 550 -64 45 -42 96 62 142 148 67 334 85 482 47z m3359 -5 c105
-23 199 -77 199 -116 0 -56 -138 -148 -465 -309 -322 -160 -640 -301 -675
-301 -47 0 94 329 225 525 75 113 156 163 322 199 89 19 308 20 394 2z m-8332
-173 c6 -27 27 -160 46 -298 103 -721 128 -833 322 -1435 190 -591 299 -964
484 -1670 125 -477 137 -530 123 -530 -5 0 -34 14 -64 31 -104 59 -638 615
-911 949 -140 171 -196 255 -274 414 -149 306 -254 615 -274 806 -11 101 -17
120 -40 120 -69 0 -398 -836 -470 -1195 -64 -319 -103 -664 -105 -940 -1 -207
9 -265 45 -265 23 0 44 44 135 290 36 96 104 279 151 405 69 186 197 502 207
512 1 2 18 -34 36 -80 132 -325 278 -532 695 -987 350 -381 492 -613 536 -875
16 -92 6 -268 -20 -369 -55 -210 -143 -302 -326 -341 -269 -57 -532 55 -635
270 -29 60 -35 83 -38 163 -3 72 -1 103 13 138 23 60 70 113 121 136 82 36
135 0 174 -118 39 -118 92 -156 219 -158 56 -1 77 4 135 33 139 68 246 214
246 335 0 241 -187 453 -466 527 -110 29 -288 29 -398 0 -236 -63 -421 -220
-536 -456 -140 -287 -132 -601 26 -934 150 -319 383 -521 707 -615 145 -42
273 -56 519 -56 l225 0 6 -257 c6 -257 18 -382 58 -598 84 -450 293 -1007 543
-1450 93 -163 276 -437 382 -570 113 -141 254 -334 254 -347 0 -36 -808 539
-1250 891 -327 260 -740 669 -1048 1037 -370 443 -637 879 -886 1444 -178 402
-256 669 -336 1135 -187 1096 -71 2093 374 3213 190 479 350 749 655 1112 115
136 599 630 618 630 6 0 16 -21 22 -47z m12996 -4 c72 -54 404 -371 490 -469
273 -309 495 -655 684 -1066 268 -582 426 -1172 503 -1869 21 -191 18 -838 -5
-1045 -118 -1076 -509 -2078 -1096 -2810 -526 -656 -1394 -1435 -2191 -1967
-165 -109 -222 -143 -243 -143 -34 0 -15 34 73 126 204 214 433 569 635 987
195 403 327 805 414 1262 25 128 121 762 121 795 0 4 116 10 258 13 210 4 272
9 342 25 183 43 317 105 459 212 368 278 563 805 446 1205 -88 300 -347 545
-649 615 -135 31 -294 25 -415 -15 -144 -49 -296 -167 -350 -273 -75 -147 -61
-343 32 -461 72 -91 190 -147 292 -139 96 8 141 44 218 177 41 69 76 96 127
95 61 -2 101 -31 135 -99 28 -56 30 -67 30 -175 0 -110 -2 -119 -32 -181 -59
-120 -169 -205 -313 -240 -33 -9 -108 -14 -190 -14 -125 1 -139 3 -192 27
-114 53 -213 177 -258 323 -59 192 -24 466 85 674 62 117 224 323 485 615 237
266 375 459 525 731 108 197 153 268 164 261 12 -8 96 -213 216 -531 158 -416
246 -622 274 -640 6 -3 16 5 23 17 20 36 17 494 -6 678 -42 347 -175 849 -331
1250 -49 127 -189 435 -205 453 -4 4 -15 -20 -25 -55 -48 -171 -199 -609 -254
-733 -187 -425 -458 -793 -838 -1138 -169 -153 -455 -396 -467 -397 -38 -1
238 998 559 2015 125 395 180 593 240 860 85 381 130 674 141 918 3 72 7 138
10 145 6 20 37 13 79 -19z m-17602 -1629 c54 -58 86 -131 97 -213 13 -105 78
-282 111 -302 32 -21 124 146 124 226 0 40 -6 53 -47 104 -50 60 -59 85 -32
85 33 0 183 -88 344 -201 207 -145 407 -272 675 -429 292 -171 405 -249 511
-355 107 -106 147 -178 170 -306 48 -261 -57 -512 -257 -619 -85 -45 -148 -60
-259 -60 -152 0 -271 42 -324 113 -18 25 -21 41 -19 130 2 129 21 212 78 337
57 124 64 157 37 190 -20 24 -24 25 -144 24 -196 0 -350 -54 -451 -156 -70
-72 -100 -131 -136 -274 -16 -67 -55 -184 -85 -260 -60 -153 -81 -228 -91
-319 -11 -112 -15 -125 -39 -136 -30 -14 -70 6 -155 78 -66 56 -94 63 -99 25
-4 -29 -14 -28 -53 5 -39 33 -68 95 -69 145 0 44 -11 53 -70 53 -45 0 -45 0
-48 37 -2 27 2 40 17 50 26 18 37 72 51 240 12 154 42 287 96 417 36 86 89
184 125 229 41 53 24 83 -136 253 -131 138 -192 218 -232 305 -25 53 -28 70
-28 164 1 185 68 326 205 426 61 45 89 44 133 -6z m11522 -1889 c271 -18 559
-41 705 -57 446 -49 1606 -302 1752 -381 75 -41 103 -76 101 -128 -5 -147
-242 -414 -540 -609 -195 -128 -820 -402 -849 -373 -8 8 56 95 146 197 89 100
161 200 154 211 -8 13 -63 -19 -175 -102 -313 -232 -777 -427 -1193 -503 -203
-37 -375 -50 -601 -43 -565 17 -1070 173 -1580 489 -159 98 -251 146 -261 135
-10 -10 46 -97 162 -252 57 -77 104 -143 104 -147 0 -27 -161 39 -505 206
-412 201 -529 272 -677 415 -153 146 -254 313 -232 384 9 31 63 85 105 107
183 95 1308 336 2049 439 80 11 159 22 175 25 55 8 987 -3 1160 -13z m10899
-193 c22 -35 -27 -74 -59 -48 -20 17 -19 47 3 59 23 14 42 10 56 -11z m-22145
-503 c69 -102 70 -104 12 -55 -68 58 -116 123 -107 146 6 15 8 15 27 -2 12
-11 43 -50 68 -89z m5847 -507 c25 -40 77 -129 116 -198 85 -151 270 -434 383
-586 263 -354 583 -647 1121 -1029 42 -30 42 -31 104 -235 165 -540 322 -906
586 -1367 252 -440 498 -782 853 -1188 327 -373 858 -935 884 -935 13 0 -136
283 -340 645 -537 954 -716 1334 -917 1955 -76 233 -129 423 -124 447 4 18
367 -220 593 -389 365 -272 724 -616 992 -950 279 -347 538 -884 675 -1402
l13 -49 99 264 c118 316 165 428 256 609 245 490 597 915 1075 1299 355 285
854 646 870 629 10 -10 -94 -358 -170 -568 -95 -264 -262 -639 -491 -1100
-236 -476 -313 -619 -649 -1198 -48 -84 -85 -155 -81 -159 14 -14 706 696 965
991 355 403 685 894 926 1375 173 346 278 611 416 1049 l73 233 193 141 c327
237 497 381 708 600 275 285 479 559 680 913 89 155 158 250 176 240 37 -23
118 -465 158 -865 39 -390 37 -688 -10 -1060 -85 -684 -325 -1403 -681 -2040
-276 -492 -584 -890 -989 -1275 -317 -302 -874 -764 -895 -742 -7 6 97 158
237 348 643 871 904 1484 1004 2359 20 177 30 500 16 520 -15 21 -24 6 -61
-110 -77 -237 -351 -756 -615 -1160 -336 -516 -560 -786 -1280 -1545 -651
-687 -930 -996 -1185 -1315 -296 -371 -470 -654 -671 -1092 -34 -76 -66 -138
-69 -138 -4 0 -29 53 -55 118 -157 391 -639 1112 -1048 1570 -167 187 -463
506 -698 752 -292 306 -369 389 -541 577 -705 774 -1069 1302 -1348 1953 -110
258 -180 396 -190 380 -14 -21 -12 -110 5 -305 32 -367 72 -604 140 -840 170
-585 488 -1190 936 -1781 247 -326 248 -345 9 -155 -217 172 -663 566 -884
781 -860 837 -1535 2469 -1536 3716 0 232 31 529 96 919 53 316 88 465 111
465 8 0 34 -33 59 -72z"/>
<path d="M31905 39096 c-126 -24 -245 -76 -289 -125 -17 -19 -18 -26 -8 -72 7
-28 12 -69 12 -92 1 -80 67 -187 144 -232 57 -33 112 -39 226 -26 193 23 302
63 368 135 72 79 79 182 17 278 -72 110 -283 170 -470 134z"/>
<path d="M30795 38870 c-164 -43 -433 -162 -576 -255 -182 -117 -429 -331
-429 -371 0 -15 9 -16 88 -11 48 3 141 17 207 31 193 39 318 56 503 66 304 17
415 39 442 91 28 51 -14 265 -80 407 -34 72 -38 73 -155 42z"/>
<path d="M36120 38700 c0 -35 39 -219 52 -247 18 -39 50 -40 89 -5 30 27 31
31 21 62 -10 27 -148 210 -159 210 -1 0 -3 -9 -3 -20z"/>
<path d="M38460 35788 c-6 -13 -21 -68 -35 -123 -44 -177 -120 -309 -246 -431
-122 -117 -248 -190 -491 -284 -76 -30 -138 -57 -138 -61 0 -3 174 -107 388
-229 897 -516 1092 -660 1752 -1304 178 -174 327 -316 332 -316 4 0 8 6 8 14
0 25 -60 186 -135 361 -296 691 -671 1357 -1163 2065 -226 324 -252 354 -272
308z m437 -824 c52 -39 73 -81 73 -148 -1 -152 -117 -250 -267 -226 -112 18
-158 77 -157 200 0 98 27 153 87 181 60 28 222 24 264 -7z"/>
<path d="M35431 33760 c-10 -18 -35 -91 -56 -162 -57 -206 -152 -431 -265
-629 -110 -190 -196 -273 -390 -371 -119 -60 -135 -79 -120 -143 21 -89 -40
-198 -187 -335 -238 -223 -611 -419 -949 -498 -165 -39 -317 -53 -642 -59
l-313 -6 118 -63 c300 -161 560 -225 913 -225 303 0 566 48 859 158 122 45
195 82 301 151 427 276 754 782 820 1267 17 126 24 582 11 718 -19 197 -56
269 -100 197z"/>
<path d="M37475 22240 c-9 -14 96 -61 148 -67 l42 -4 -28 25 c-15 14 -51 32
-79 41 -61 18 -75 19 -83 5z"/>
<path d="M36707 21953 c-4 -3 -7 -20 -7 -37 0 -17 -12 -112 -26 -211 -33 -234
-35 -327 -9 -380 38 -79 285 -299 479 -427 132 -87 123 -88 231 23 143 147
375 447 375 484 0 18 -80 66 -270 160 -189 94 -376 195 -532 287 -159 93 -223
120 -241 101z"/>
<path d="M36478 20723 c-29 -33 -68 -123 -165 -376 -52 -138 -120 -308 -150
-377 -97 -221 -125 -291 -119 -297 13 -13 303 245 703 627 l132 126 -116 123
c-64 67 -136 138 -161 157 -51 38 -99 45 -124 17z"/>
<path d="M22277 39100 c-141 -36 -236 -144 -237 -269 0 -137 95 -219 303 -262
293 -60 437 27 478 290 14 96 0 129 -72 165 -120 58 -377 100 -472 76z"/>
<path d="M23623 38848 c-17 -18 -47 -62 -67 -98 -37 -68 -119 -273 -130 -327
-7 -30 -6 -31 41 -47 123 -40 368 -76 653 -95 80 -6 205 -22 279 -36 157 -29
261 -33 261 -10 0 71 -448 393 -777 559 -67 33 -206 86 -227 86 -1 0 -16 -15
-33 -32z"/>
<path d="M18270 38643 c-34 -31 -70 -74 -81 -96 -27 -53 -27 -113 0 -140 l21
-21 30 29 c39 38 111 185 118 240 6 62 -11 59 -88 -12z"/>
<path d="M15763 35518 c-332 -467 -529 -767 -667 -1013 -93 -166 -384 -751
-485 -975 -119 -262 -159 -366 -181 -467 l-19 -88 22 26 c12 14 56 68 97 119
90 111 424 440 646 638 352 313 520 424 1562 1042 78 47 142 87 142 90 0 3
-51 23 -114 43 -223 74 -430 232 -601 461 -73 98 -117 183 -156 304 -18 56
-36 102 -39 102 -3 0 -96 -127 -207 -282z m15 -550 c60 -22 120 -71 153 -125
17 -27 20 -45 17 -84 -15 -151 -201 -237 -348 -161 -87 44 -95 62 -95 206 0
138 11 168 68 185 44 14 138 4 205 -21z"/>
<path d="M18986 33822 c-9 -14 -35 -175 -47 -292 -16 -148 -16 -447 0 -575 63
-507 226 -859 538 -1155 295 -282 654 -457 1078 -527 153 -25 541 -25 705 0
260 40 452 103 618 203 l97 59 -310 6 c-309 7 -418 15 -570 45 -306 60 -672
222 -919 409 -115 86 -238 206 -291 284 -59 86 -66 129 -35 205 32 80 27 90
-50 99 -194 23 -389 222 -549 559 -74 154 -100 228 -162 451 -58 211 -82 263
-103 229z"/>
<path d="M17596 21890 c-181 -82 -885 -454 -886 -468 -1 -52 110 -198 357
-469 l166 -182 116 109 c64 60 191 183 283 272 l166 163 -9 190 c-14 305 -34
435 -67 435 -9 -1 -66 -23 -126 -50z"/>
<path d="M17809 20663 c-110 -114 -189 -211 -189 -234 0 -35 579 -606 735
-725 67 -51 64 -42 -79 274 -112 246 -192 440 -272 655 -32 86 -61 157 -65
157 -3 0 -62 -57 -130 -127z"/>
<path d="M20905 19989 c-258 -24 -336 -74 -313 -199 10 -53 73 -190 120 -258
76 -112 231 -243 303 -257 56 -11 189 97 201 163 8 39 -40 479 -56 519 -17 41
-78 48 -255 32z"/>
<path d="M33332 19982 c-26 -26 -38 -84 -53 -260 -24 -288 0 -446 72 -471 60
-21 155 33 279 158 150 151 271 404 230 480 -28 53 -196 99 -391 108 -108 5
-118 4 -137 -15z"/>
<path d="M16640 51605 c-30 -13 -328 -139 -662 -279 -1246 -524 -1502 -644
-2375 -1112 -1891 -1015 -3256 -1924 -4721 -3146 -657 -548 -1074 -930 -1687
-1543 -939 -938 -1580 -1669 -2246 -2558 -1165 -1553 -1987 -2925 -2721 -4542
-283 -622 -720 -1701 -944 -2330 -158 -442 -434 -1388 -608 -2081 -552 -2205
-752 -4341 -646 -6904 66 -1587 230 -2762 605 -4340 383 -1612 890 -3071 1693
-4872 l117 -263 70 -23 c483 -161 1172 -383 1389 -449 16 -4 18 -2 12 23 -16
62 -97 237 -301 649 -578 1168 -981 2142 -1375 3325 -563 1689 -889 3175
-1059 4830 -344 3336 -5 6444 1056 9675 449 1370 1098 2818 1901 4245 887
1576 1908 2962 3160 4290 254 269 920 937 1187 1190 1622 1535 3345 2787 5255
3817 424 229 1327 674 1629 804 97 42 106 47 146 104 24 33 71 112 105 175
217 404 389 626 818 1061 224 227 275 282 260 278 -2 0 -28 -11 -58 -24z"/>
<path d="M37800 51552 c0 -11 75 -82 190 -179 309 -264 569 -594 867 -1103
l108 -185 655 -330 c1148 -579 1805 -943 2635 -1463 2226 -1395 4171 -3123
5956 -5292 1232 -1497 2474 -3565 3300 -5493 672 -1570 1127 -3000 1408 -4427
415 -2107 549 -4042 426 -6110 -175 -2928 -878 -5667 -2168 -8450 -52 -113
-163 -347 -247 -520 -249 -515 -381 -813 -366 -827 16 -16 334 84 1051 331
l370 127 232 522 c281 632 330 746 488 1138 960 2374 1499 4673 1705 7274 35
452 43 804 37 1740 -11 1708 -58 2400 -243 3599 -341 2208 -970 4344 -1839
6241 -1234 2693 -2538 4668 -4420 6695 -236 254 -934 955 -1190 1196 -921 863
-1810 1593 -2740 2249 -77 55 -309 212 -515 350 -1750 1171 -3314 2002 -5137
2729 -443 176 -563 217 -563 188z"/>
<path d="M14840 49037 c-429 -206 -1157 -586 -1500 -782 -322 -184 -941 -573
-1029 -646 -22 -19 -51 -53 -63 -76 -42 -79 -14 -135 236 -472 84 -113 283
-384 441 -601 358 -488 907 -1222 1043 -1392 76 -96 108 -128 124 -128 44 0
214 95 449 251 l237 157 6 84 c3 45 10 416 16 823 23 1611 57 1997 222 2560
41 143 87 314 88 328 0 19 -52 -2 -270 -106z"/>
<path d="M39376 49124 c3 -16 28 -109 55 -207 170 -625 201 -1016 215 -2757
l6 -806 297 -196 c163 -107 317 -207 342 -222 l45 -26 31 33 c62 65 270 336
710 922 248 330 593 788 766 1018 286 378 421 560 441 594 8 14 -409 295 -720
486 -715 438 -2030 1158 -2162 1183 -32 7 -33 6 -26 -22z"/>
<path d="M11416 47000 c-270 -185 -586 -428 -586 -452 0 -22 203 -261 661
-779 196 -222 483 -556 1019 -1184 253 -297 407 -468 431 -479 44 -21 146 36
324 179 130 105 266 225 272 241 11 30 -270 403 -1046 1389 -674 857 -925
1165 -946 1165 -7 0 -65 -36 -129 -80z"/>
<path d="M42776 46944 c-64 -75 -256 -317 -428 -538 -401 -515 -610 -781 -988
-1256 -319 -400 -480 -609 -480 -621 0 -4 138 -108 307 -230 l306 -223 56 60
c97 104 378 428 741 854 310 364 784 911 1214 1400 74 85 135 157 135 160 0 7
-263 206 -424 323 -198 142 -295 207 -310 207 -8 0 -66 -61 -129 -136z"/>
<path d="M10155 46033 c-357 -277 -1188 -1029 -1451 -1314 -123 -134 -133
-149 -113 -186 47 -91 799 -787 1068 -989 140 -104 305 -151 448 -125 187 33
351 143 748 500 105 94 192 170 195 170 8 -2 394 -405 397 -416 2 -5 -58 -65
-134 -134 -75 -68 -279 -256 -452 -418 -335 -311 -489 -446 -546 -477 -33 -18
-38 -18 -98 -2 -34 9 -161 53 -281 98 -363 135 -473 156 -754 147 -190 -6
-248 -19 -362 -78 -186 -96 -376 -289 -799 -809 -291 -357 -508 -601 -560
-629 -43 -24 -431 280 -431 337 0 73 962 1221 1435 1712 71 75 145 152 163
171 l33 36 -188 176 c-103 96 -221 203 -261 236 l-73 61 -37 -19 c-216 -112
-1250 -1314 -1834 -2131 -290 -407 -355 -520 -328 -570 17 -32 228 -168 885
-572 742 -456 1489 -919 1685 -1043 80 -51 170 -105 200 -120 l54 -28 34 39
c68 77 156 198 393 535 l18 26 -117 85 c-109 80 -402 275 -797 531 -92 59
-165 112 -163 117 25 74 642 833 838 1031 77 77 111 103 175 135 75 37 84 39
189 42 98 3 125 0 231 -28 135 -35 208 -67 213 -93 2 -11 -24 -47 -69 -95
-133 -142 -709 -836 -709 -854 0 -15 267 -199 444 -307 97 -60 121 -70 131
-59 7 7 88 105 180 218 285 346 442 520 961 1055 588 606 1249 1248 1509 1465
61 50 138 119 173 151 l63 60 -20 27 c-46 65 -444 506 -1256 1392 -270 294
-557 609 -639 700 -166 185 -279 290 -310 290 -12 -1 -48 -22 -81 -47z m194
-1199 c111 -114 201 -210 201 -214 0 -10 -320 -297 -427 -382 -46 -38 -90 -68
-97 -68 -24 0 -127 75 -232 168 -111 99 -164 160 -164 189 0 31 107 146 312
335 106 98 196 178 200 178 3 0 96 -93 207 -206z"/>
<path d="M44088 46003 c-76 -74 -147 -152 -519 -573 -90 -102 -407 -450 -704
-775 -297 -324 -578 -633 -624 -685 -98 -111 -251 -301 -251 -311 0 -4 80 -74
178 -156 404 -342 673 -592 1232 -1152 537 -537 769 -785 1055 -1131 71 -85
201 -239 288 -343 l159 -187 37 22 c180 110 521 343 521 356 0 29 -546 691
-743 901 -54 57 -96 105 -95 106 2 2 100 27 218 56 243 59 338 67 400 35 169
-89 487 -432 838 -904 180 -242 225 -322 199 -355 -7 -9 -181 -124 -387 -258
-481 -310 -640 -418 -640 -432 0 -7 66 -109 146 -227 80 -118 164 -243 187
-277 30 -45 48 -63 64 -63 33 0 257 116 458 238 99 60 466 282 815 494 349
211 866 523 1148 692 341 204 510 311 505 319 -3 7 -46 71 -93 142 -413 619
-1699 2195 -2050 2514 l-81 73 -29 -23 c-46 -39 -484 -440 -494 -454 -6 -8 74
-105 277 -331 395 -442 724 -834 1035 -1232 151 -194 312 -421 312 -440 0 -19
-369 -249 -439 -273 -32 -11 -34 -10 -103 57 -95 94 -260 286 -468 544 -490
608 -698 800 -965 889 -123 41 -223 52 -365 40 -238 -20 -477 -81 -752 -191
l-177 -71 -39 27 c-178 123 -1149 986 -1135 1009 25 44 118 149 212 240 87 84
117 107 139 107 59 0 139 -53 398 -263 144 -117 298 -219 370 -247 123 -46
341 -64 494 -40 92 15 152 47 275 150 379 316 1000 927 983 968 -2 5 -113 113
-248 242 -696 663 -1373 1250 -1442 1250 -12 0 -54 -33 -100 -77z m299 -1028
c133 -106 379 -350 403 -400 19 -39 20 -46 7 -77 -20 -46 -122 -136 -373 -329
-12 -10 -202 145 -417 339 l-139 125 144 145 c143 144 272 262 286 262 4 0 44
-29 89 -65z"/>
<path d="M14708 44537 c-159 -98 -266 -171 -518 -355 -354 -257 -840 -641
-840 -663 0 -15 11 -12 207 57 281 99 417 140 638 195 234 57 470 99 560 99
101 0 107 8 117 176 10 166 -2 566 -18 571 -5 2 -71 -34 -146 -80z"/>
<path d="M39590 44610 c0 -5 -9 -90 -20 -187 -41 -365 -42 -485 -3 -525 19
-18 39 -22 161 -29 313 -19 707 -118 1188 -297 88 -33 176 -63 195 -67 l34 -7
-20 22 c-64 72 -711 552 -1160 862 -116 80 -362 238 -370 238 -3 0 -5 -4 -5
-10z"/>
<path d="M43076 41709 c98 -158 192 -327 254 -454 131 -267 187 -427 284 -800
100 -389 130 -457 279 -654 401 -528 531 -710 768 -1076 517 -801 1133 -1966
1547 -2930 813 -1892 1252 -3751 1377 -5825 29 -487 38 -922 32 -1600 -6 -753
-19 -972 -58 -996 -6 -3 -22 5 -35 20 -14 14 -27 26 -29 26 -3 0 -11 -13 -20
-30 -20 -38 -39 -38 -114 1 -67 35 -89 31 -116 -20 -21 -42 -63 -71 -101 -71
-34 0 -42 6 -90 67 -29 38 -82 57 -130 48 -52 -9 -56 -31 -38 -202 13 -120 14
-165 5 -248 -14 -123 -27 -174 -48 -182 -8 -3 -44 1 -79 10 -72 17 -119 10
-149 -23 -25 -28 -52 -25 -69 8 -39 75 -52 358 -66 1352 -10 738 -23 1183 -40
1360 -5 56 -21 134 -39 190 -17 52 -49 186 -71 297 -53 268 -80 339 -109 285
-6 -11 -18 -78 -26 -149 -45 -375 -63 -458 -100 -458 -15 0 -30 19 -56 68 -68
129 -96 136 -134 31 -38 -105 -55 -124 -113 -124 -23 0 -32 6 -41 28 -7 18
-12 229 -15 677 -4 618 -5 658 -28 815 l-24 165 -66 -125 c-70 -131 -120 -201
-135 -187 -16 16 -15 333 2 672 18 361 18 410 -15 905 -40 594 -76 894 -115
946 -21 29 -40 11 -117 -116 -38 -63 -79 -125 -91 -138 l-21 -23 -12 23 c-70
135 -504 2091 -504 2271 0 38 1 39 29 34 16 -4 51 -19 78 -35 61 -38 89 -46
96 -30 2 7 -4 45 -14 83 -37 140 -28 160 126 298 55 49 101 93 103 97 1 4 -62
18 -140 30 -79 12 -154 27 -168 32 -43 16 -79 59 -106 129 -15 38 -37 78 -50
90 l-24 22 -25 -23 c-14 -13 -25 -27 -25 -32 0 -5 -15 -42 -34 -83 -43 -92
-80 -117 -216 -140 -52 -9 -101 -19 -108 -21 -9 -2 17 -37 67 -92 103 -110
126 -155 117 -225 -18 -143 -19 -167 -3 -173 9 -3 50 13 94 37 51 28 85 40 97
36 19 -8 19 -3 -10 -207 -42 -287 -396 -1998 -425 -2052 -5 -10 -20 -18 -34
-18 -36 0 -97 77 -166 213 -41 81 -64 116 -69 106 -4 -8 -21 -72 -38 -144 -53
-221 -75 -562 -76 -1150 -1 -503 -7 -465 150 -953 221 -687 379 -1245 478
-1689 94 -423 144 -764 192 -1313 21 -252 30 -907 14 -1079 -14 -154 -40 -272
-67 -310 -35 -47 -52 -87 -63 -152 -6 -37 -15 -313 -20 -649 -13 -824 -26
-1017 -106 -1552 l-46 -306 164 -204 c711 -879 1238 -1624 1705 -2408 60 -102
199 -344 308 -537 109 -194 200 -352 201 -350 7 7 380 899 449 1072 874 2208
1295 4462 1295 6935 0 1089 -67 1964 -225 2974 -432 2742 -1584 5498 -3312
7921 -502 703 -1264 1597 -1641 1923 -79 69 -101 85 -86 61z"/>
<path d="M11241 41628 c-158 -138 -722 -775 -1070 -1208 -409 -509 -774 -1030
-1204 -1716 -1569 -2511 -2548 -5379 -2806 -8229 -87 -953 -99 -1955 -35
-2905 96 -1444 352 -2841 774 -4240 122 -404 293 -877 515 -1430 254 -631 426
-1003 455 -985 21 13 94 131 245 395 492 861 1204 1887 1928 2779 l190 233
-46 312 c-54 359 -61 415 -81 666 -23 275 -34 497 -46 875 -17 549 -32 702
-81 845 -93 267 -104 727 -33 1435 77 780 192 1315 509 2389 46 159 90 325 97
370 10 74 9 93 -11 195 -24 120 -25 155 -2 401 19 204 9 826 -19 1155 -19 217
-60 350 -110 350 -21 0 -31 -12 -68 -85 -48 -95 -76 -130 -92 -114 -22 22
-183 825 -315 1574 -78 442 -108 646 -100 678 7 28 19 27 110 -11 32 -14 63
-23 67 -21 13 8 9 41 -12 96 -11 29 -20 73 -20 97 0 43 3 48 91 133 50 49 89
94 86 101 -4 14 -88 15 -184 2 -57 -7 -63 -6 -85 16 -13 13 -41 73 -62 132
-21 59 -40 107 -41 105 -2 -2 -22 -45 -44 -97 -22 -51 -52 -109 -66 -127 -24
-32 -30 -34 -83 -34 -31 0 -87 -3 -123 -6 l-66 -7 75 -61 c42 -33 87 -77 100
-96 22 -33 23 -41 17 -126 -8 -104 1 -134 41 -134 18 0 30 10 45 35 47 79 85
61 83 -39 -3 -134 -472 -2177 -508 -2213 -14 -15 -42 16 -91 100 -78 134 -123
169 -145 112 -43 -112 -86 -792 -100 -1565 -11 -619 -22 -741 -63 -727 -6 2
-38 63 -71 135 -32 73 -62 132 -65 132 -17 0 -54 -403 -71 -770 -39 -840 -48
-950 -87 -982 -23 -19 -68 37 -88 109 -29 105 -49 148 -72 151 -27 4 -36 -12
-58 -103 -19 -78 -50 -145 -66 -145 -27 0 -55 125 -89 400 -23 180 -35 240
-51 240 -19 0 -42 -75 -75 -245 -59 -300 -75 -369 -100 -424 -19 -43 -27 -83
-34 -180 -18 -239 -30 -589 -45 -1341 -18 -890 -29 -1169 -49 -1188 -8 -8 -48
-18 -90 -23 -42 -4 -101 -16 -132 -26 -71 -22 -77 -15 -70 92 2 44 10 172 17
285 8 135 9 219 3 245 -9 37 -13 40 -45 43 -50 4 -97 -35 -105 -89 -4 -21 -10
-39 -15 -39 -4 0 -30 12 -56 26 -40 21 -56 24 -96 19 -57 -7 -80 4 -97 47 -28
70 -42 70 -96 -3 -40 -54 -54 -61 -54 -25 0 41 -16 38 -59 -10 -25 -28 -46
-44 -55 -41 -53 21 -71 447 -62 1477 8 1040 23 1414 72 1880 112 1072 286
1951 605 3065 418 1455 919 2619 1772 4110 490 858 813 1342 1251 1878 74 90
143 182 155 205 31 62 122 341 181 557 63 232 151 499 221 671 62 154 91 214
174 359 35 61 66 120 70 133 11 37 -18 27 -84 -30z"/>
<path d="M5437 40748 c-131 -161 -688 -1132 -1106 -1927 -161 -305 -454 -894
-553 -1111 -141 -306 -290 -681 -277 -694 31 -32 2751 -925 3178 -1045 l75
-21 41 43 c49 51 99 146 235 447 248 547 712 1445 1077 2085 124 216 281 527
285 562 3 19 -55 54 -432 271 -778 445 -1804 1042 -2215 1288 -131 79 -247
144 -256 144 -10 0 -33 -19 -52 -42z m708 -1734 c239 -64 418 -230 530 -491
43 -98 69 -243 60 -327 -10 -85 -49 -199 -97 -280 -45 -76 -156 -194 -231
-245 -189 -128 -432 -188 -657 -162 -80 9 -110 18 -185 56 -223 111 -421 352
-455 556 -71 418 242 826 698 909 68 13 267 3 337 -16z"/>
<path d="M48895 40759 c-63 -47 -313 -194 -1086 -637 -758 -434 -1390 -799
-1626 -938 -141 -84 -142 -84 -132 -112 15 -41 83 -164 284 -517 264 -462 450
-809 664 -1235 225 -448 289 -584 471 -1005 184 -426 168 -396 199 -389 14 4
757 250 1651 548 1225 408 1626 545 1628 557 12 68 -510 1235 -780 1744 -428
806 -953 1704 -1135 1943 -63 83 -78 87 -138 41z m-165 -1749 c146 -30 284
-102 381 -199 67 -67 84 -92 141 -208 81 -164 102 -244 102 -383 -1 -194 -62
-338 -204 -481 -71 -71 -101 -94 -180 -132 -147 -73 -225 -90 -410 -90 -129 0
-168 3 -235 21 -349 96 -586 370 -602 697 -8 167 37 313 141 459 76 107 246
256 331 292 112 47 369 58 535 24z"/>
<path d="M3189 36263 c-71 -159 -213 -586 -233 -700 -4 -25 -1 -35 12 -42 21
-11 330 -93 877 -231 220 -56 742 -191 1160 -301 1220 -322 1265 -332 1286
-313 63 57 259 534 259 629 0 31 -4 35 -52 53 -356 133 -3168 972 -3257 972
-17 0 -28 -14 -52 -67z"/>
<path d="M51110 36319 c-19 -6 -151 -41 -292 -80 -563 -152 -2344 -698 -2787
-855 -68 -24 -129 -49 -133 -56 -14 -21 -1 -80 36 -161 19 -42 56 -143 81
-224 60 -190 85 -252 110 -269 23 -15 170 21 1155 279 305 80 803 209 1105
287 531 136 812 212 998 267 67 20 91 32 97 48 29 77 -144 561 -262 733 -31
45 -43 48 -108 31z"/>
<path d="M2696 34771 c-108 -241 -476 -1841 -625 -2721 -36 -209 -81 -528 -81
-571 0 -13 24 -19 123 -33 153 -21 329 -39 617 -66 287 -26 610 -61 965 -105
279 -35 450 -46 472 -32 18 11 55 183 158 731 99 523 176 912 244 1226 22 102
45 225 52 273 11 81 15 90 38 99 33 13 279 -6 441 -33 157 -27 150 -23 150
-72 0 -49 -37 -269 -81 -477 -169 -806 -254 -1289 -338 -1925 -87 -657 -130
-1206 -131 -1662 l0 -193 -320 0 -320 0 5 68 c21 272 59 1312 48 1323 -16 16
-928 93 -1756 149 -372 25 -443 26 -451 4 -11 -28 -35 -244 -46 -404 -72
-1087 -88 -3357 -24 -3419 20 -19 426 7 1069 69 226 22 516 49 645 60 129 12
304 30 388 41 84 10 155 19 157 19 13 0 -12 541 -31 658 l-5 32 -322 0 c-352
0 -595 -11 -931 -40 -121 -11 -221 -18 -222 -17 -1 1 2 376 7 832 4 457 8 956
8 1111 l1 280 337 12 c185 7 338 10 341 7 2 -2 -5 -273 -16 -602 -22 -617 -20
-712 13 -812 17 -54 63 -103 115 -125 79 -33 183 -37 722 -30 l526 7 6 -64 c3
-35 11 -147 16 -249 51 -898 153 -1815 300 -2685 89 -527 106 -683 81 -724
-19 -30 -370 -111 -495 -114 l-70 -2 -13 38 c-43 129 -199 1136 -238 1532 -19
194 -41 308 -68 342 -21 26 -22 26 -126 20 -376 -22 -1912 -212 -2083 -258
-46 -12 -68 -49 -68 -112 0 -65 114 -879 186 -1327 80 -505 192 -1030 291
-1368 26 -90 41 -126 56 -134 35 -18 115 -3 607 117 261 64 830 202 1265 306
1235 297 1465 357 1581 409 34 15 66 35 71 44 7 12 -6 79 -44 226 -125 493
-255 1255 -362 2120 -75 609 -81 727 -88 1800 -8 1345 18 2068 97 2695 116
920 326 2012 520 2703 16 57 35 142 41 188 10 73 10 87 -3 100 -17 17 -363
105 -1173 298 -1112 264 -2128 496 -2176 496 -22 0 -30 -9 -53 -59z m868 -916
c261 -42 295 -51 307 -82 13 -35 -6 -161 -66 -433 -74 -338 -125 -601 -186
-970 -29 -173 -56 -319 -60 -324 -14 -15 -467 28 -599 58 l-55 12 2 69 c3 127
64 449 204 1080 125 561 152 643 207 631 15 -3 125 -22 246 -41z m-72 -8440
c26 -154 77 -446 113 -649 36 -203 62 -372 59 -377 -3 -5 -14 -9 -25 -9 -24 0
-514 -98 -555 -111 -44 -14 -59 -4 -82 49 -41 96 -141 684 -187 1102 -22 199
-24 186 38 205 51 15 288 61 357 68 19 2 80 4 134 3 l100 -1 48 -280z"/>
<path d="M51558 34800 c-83 -15 -1880 -422 -2848 -645 -226 -52 -380 -107
-380 -136 0 -19 68 -319 135 -599 332 -1381 478 -2413 545 -3855 18 -364 24
-1527 11 -1800 -21 -427 -52 -742 -127 -1305 -89 -670 -234 -1513 -353 -2054
-44 -200 -43 -212 17 -240 37 -18 536 -143 1982 -496 1348 -329 1482 -361
1497 -356 47 19 98 216 242 946 149 759 213 1207 264 1863 12 155 12 158 -8
162 -66 16 -909 118 -1470 179 -273 30 -404 43 -703 70 -37 3 -45 0 -53 -18
-9 -21 -64 -337 -139 -791 -47 -288 -117 -688 -161 -923 -23 -118 -36 -165
-47 -170 -23 -8 -193 15 -402 55 -102 20 -186 37 -188 38 -1 1 8 63 22 136 57
308 230 1572 295 2154 31 273 51 619 61 1050 5 219 14 406 20 427 12 41 29 52
66 38 45 -18 206 -124 377 -249 l167 -123 0 -51 c0 -29 -7 -187 -15 -352 -19
-367 -21 -571 -7 -607 14 -35 46 -43 264 -68 506 -57 1978 -184 1989 -172 11
12 40 212 49 338 46 630 -9 2807 -85 3339 -19 135 -31 172 -61 192 -24 15 -46
14 -347 -16 -802 -79 -2241 -187 -2392 -179 -57 3 -61 4 -77 38 -20 40 -37
148 -73 445 -66 554 -190 1232 -374 2047 -45 197 -81 361 -81 366 0 19 430 92
542 92 67 0 66 1 97 -114 72 -264 183 -820 286 -1431 75 -449 124 -706 144
-757 5 -15 21 -34 35 -43 22 -15 39 -14 228 9 111 14 455 55 763 91 579 68
1095 131 1154 142 l33 6 -7 66 c-25 248 -91 682 -161 1051 -178 949 -462 2078
-552 2200 -24 32 -44 33 -174 10z m-371 -905 c30 -21 40 -58 129 -465 187
-859 264 -1249 252 -1282 -10 -24 -325 -87 -513 -103 -77 -6 -105 3 -137 45
-40 55 -298 1487 -298 1659 l0 50 53 15 c88 26 186 47 322 71 159 29 165 29
192 10z m-992 -3970 c132 -37 307 -143 590 -356 301 -228 517 -413 852 -732
l233 -222 -1 -355 c0 -369 -5 -435 -35 -457 -65 -48 -145 15 -579 451 -670
674 -859 844 -1292 1161 l-233 170 0 184 0 183 203 -5 c148 -3 218 -9 262 -22z
m1150 -4255 c229 -35 333 -55 342 -63 14 -15 -106 -775 -181 -1146 -34 -169
-43 -191 -77 -191 -49 0 -640 130 -657 145 -2 2 46 275 107 607 61 331 111
608 111 615 0 6 4 23 10 37 9 25 13 26 82 26 40 0 159 -13 263 -30z"/>
<path d="M43497 23747 c-10 -23 -75 -179 -144 -347 -223 -544 -385 -897 -595
-1295 -640 -1215 -1427 -2329 -2393 -3385 -655 -715 -1664 -1625 -2555 -2302
-766 -582 -1721 -1184 -2666 -1681 -466 -246 -1156 -581 -1564 -759 -113 -50
-297 -131 -410 -180 -210 -93 -525 -246 -518 -253 3 -4 1115 102 1678 160 393
40 814 90 1259 150 223 29 497 63 609 75 335 34 339 36 418 184 67 125 108
177 236 302 153 149 349 301 718 554 221 151 1090 720 1100 720 14 0 28 -56
54 -213 29 -172 49 -386 40 -422 -7 -27 -49 -44 -364 -145 -332 -106 -533
-197 -747 -340 -136 -91 -233 -174 -329 -280 -103 -115 -154 -188 -154 -221 0
-45 -158 -65 1450 182 575 88 1068 166 1097 174 94 27 103 70 47 222 -128 349
-186 546 -238 818 -50 259 -60 360 -61 585 0 275 -7 260 205 468 l155 152 7
-257 c9 -358 37 -612 94 -831 79 -307 232 -745 329 -937 52 -104 69 -113 179
-97 97 14 130 33 121 69 -3 13 -17 42 -31 64 -106 169 -313 825 -358 1134 -27
195 -39 420 -33 665 9 373 32 475 142 621 57 76 573 614 581 606 2 -1 -21 -77
-51 -168 -127 -385 -175 -671 -175 -1038 0 -212 11 -342 45 -548 51 -301 107
-512 197 -736 85 -214 235 -531 251 -535 25 -5 813 150 825 163 9 9 -30 99
-158 365 -186 386 -241 530 -288 750 -65 300 -51 684 33 975 149 512 513 871
1017 1004 165 44 267 54 458 48 248 -9 406 -48 625 -157 223 -111 426 -283
568 -481 84 -118 219 -383 235 -463 26 -127 8 -436 -33 -597 -94 -361 -303
-639 -620 -822 -229 -133 -566 -218 -804 -204 -110 7 -179 24 -454 113 -109
35 -206 64 -215 64 -20 -1 104 -121 296 -287 129 -113 133 -115 170 -108 264
48 1346 284 1737 380 446 109 506 135 642 278 97 102 182 234 322 502 67 127
128 235 137 242 39 29 59 -14 135 -292 27 -99 63 -224 81 -277 29 -91 33 -98
57 -98 104 0 1465 375 1584 436 23 12 27 21 27 57 0 158 -297 1029 -685 2012
-573 1451 -1435 3047 -2259 4185 -326 450 -997 1307 -1031 1317 -5 1 -18 -16
-28 -40z m-53 -2659 c57 -76 183 -283 206 -337 11 -28 10 -34 -15 -67 -16 -20
-85 -97 -154 -171 -199 -213 -291 -324 -291 -352 0 -14 52 -27 220 -57 264
-45 433 -98 620 -195 176 -90 265 -174 398 -377 65 -98 117 -200 108 -210 -9
-9 -79 15 -251 85 -331 135 -502 191 -715 237 -195 42 -332 56 -646 66 -285 9
-376 17 -394 37 -5 4 46 91 111 193 258 399 379 601 574 960 82 150 151 260
165 260 5 0 34 -33 64 -72z m-144 -1698 c318 -39 581 -113 885 -249 306 -136
473 -261 594 -446 66 -101 213 -395 270 -540 132 -336 221 -703 221 -911 0
-90 -7 -124 -25 -124 -15 0 -33 43 -74 176 -150 477 -665 1010 -1234 1279
-331 156 -647 227 -1007 227 -184 0 -290 -10 -455 -43 -297 -60 -600 -182
-860 -348 -161 -103 -208 -131 -213 -127 -2 3 119 161 269 352 150 191 327
420 393 508 109 144 126 162 174 183 62 29 199 58 332 72 116 12 613 6 730 -9z"/>
<path d="M10864 23718 c-201 -208 -812 -1019 -1220 -1623 -808 -1195 -1458
-2417 -1986 -3735 -132 -329 -393 -1048 -565 -1555 -69 -205 -173 -538 -173
-555 0 -23 334 -123 905 -273 461 -121 710 -181 728 -174 10 4 49 108 107 284
102 309 121 353 150 353 29 0 59 -48 159 -250 115 -236 228 -425 298 -501 69
-74 147 -113 338 -168 331 -96 1302 -316 1790 -407 77 -14 178 -26 225 -27 79
-2 89 1 145 31 87 47 396 304 383 318 -4 3 -69 -13 -145 -36 -76 -24 -186 -58
-244 -76 -273 -85 -520 -82 -821 7 -305 91 -556 301 -736 616 -134 235 -193
463 -196 753 -1 171 13 229 99 399 234 467 622 770 1110 868 127 25 440 25
580 -1 197 -36 397 -116 563 -227 110 -74 293 -262 375 -384 81 -123 169 -304
196 -405 29 -107 41 -261 41 -525 0 -556 -57 -790 -320 -1323 -60 -123 -110
-225 -110 -227 0 -2 44 -13 98 -25 53 -12 169 -40 257 -62 216 -54 383 -88
400 -82 36 14 153 216 234 406 94 219 143 379 220 718 84 374 106 549 97 772
-12 297 -57 554 -146 833 -69 215 -74 235 -60 235 19 0 188 -169 432 -433
l238 -257 0 -624 0 -625 -136 -378 c-201 -558 -254 -712 -254 -733 0 -29 31
-40 107 -40 115 0 141 28 228 236 106 252 215 591 280 874 71 309 95 499 95
767 0 112 2 203 5 203 3 0 53 -38 113 -84 131 -102 206 -181 234 -243 86 -191
-47 -1052 -238 -1545 -73 -190 -104 -279 -104 -303 0 -20 7 -26 38 -34 143
-38 1230 -213 1988 -321 389 -55 572 -76 581 -66 21 21 -114 212 -245 348
-204 211 -556 383 -1173 572 -64 20 -128 45 -144 58 -27 21 -27 24 -21 89 7
82 70 461 86 518 6 23 16 41 23 41 69 0 1282 -831 1690 -1158 171 -137 300
-295 397 -489 28 -57 47 -82 63 -86 135 -34 2101 -261 3212 -372 416 -41 575
-52 575 -39 0 23 -287 169 -702 358 -1917 872 -3382 1738 -4753 2810 -1429
1118 -2805 2594 -3794 4071 -313 467 -490 776 -804 1405 -248 495 -389 803
-569 1240 -140 339 -145 350 -156 350 -4 0 -35 -28 -68 -62z m466 -2983 c283
-462 434 -702 509 -805 63 -88 111 -164 111 -178 0 -22 -66 -29 -405 -42 -385
-15 -528 -36 -831 -126 -321 -94 -643 -216 -724 -274 -139 -99 10 219 188 402
166 171 314 240 831 389 135 39 248 73 250 75 12 11 -41 74 -202 243 -99 102
-192 208 -208 236 -52 91 -43 124 112 400 72 128 83 144 94 128 7 -10 130
-211 275 -448z m734 -1355 c38 -6 88 -19 112 -30 98 -43 247 -217 719 -835
109 -143 202 -266 208 -273 16 -20 1 -25 -30 -8 -15 8 -84 56 -153 105 -278
202 -769 406 -1096 457 -144 22 -421 22 -569 0 -554 -82 -1158 -385 -1511
-759 -181 -191 -314 -404 -429 -687 -55 -136 -112 -250 -125 -250 -35 0 -7
330 51 598 73 339 261 807 404 1007 162 227 485 412 985 563 235 71 388 102
635 126 79 8 731 -3 799 -14z"/>
<path d="M5940 23549 c-63 -17 -317 -86 -565 -154 -567 -156 -1143 -312 -1865
-505 -786 -211 -867 -235 -917 -282 -13 -12 -23 -31 -23 -44 0 -54 205 -719
234 -759 12 -17 25 -14 212 40 750 216 3293 990 3311 1008 30 31 -216 711
-262 723 -5 1 -62 -11 -125 -27z"/>
<path d="M48362 23567 c-37 -45 -232 -635 -232 -703 0 -13 -23 -5 500 -160
497 -146 1300 -390 2145 -651 790 -243 867 -263 892 -231 34 42 232 739 220
772 -10 26 -333 129 -852 271 -154 42 -658 180 -1120 306 -1027 282 -1503 409
-1525 409 -10 0 -22 -6 -28 -13z"/>
<path d="M5925 22101 c-313 -104 -968 -320 -1455 -480 -862 -283 -1373 -456
-1419 -481 -21 -11 -23 -16 -17 -63 16 -115 189 -589 413 -1126 233 -559 463
-1069 778 -1726 103 -214 205 -428 227 -475 21 -46 41 -86 43 -88 12 -12 1722
945 2210 1236 196 117 276 192 352 327 81 144 324 664 379 812 l25 65 -20 52
c-28 75 -123 288 -254 566 -190 406 -347 767 -472 1085 -108 275 -200 485
-213 485 -4 -1 -263 -86 -577 -189z m-397 -1177 c256 -51 519 -278 599 -517
26 -76 28 -93 28 -247 -1 -155 -2 -170 -28 -245 -78 -224 -215 -383 -412 -480
-118 -59 -224 -85 -362 -92 -172 -9 -284 20 -447 116 -144 85 -262 212 -326
355 -88 193 -83 440 10 627 65 130 192 274 313 358 72 49 206 110 277 125 88
19 254 19 348 0z"/>
<path d="M47895 22178 c-29 -62 -127 -291 -218 -508 -202 -485 -312 -733 -523
-1185 -90 -192 -164 -355 -164 -362 0 -31 410 -886 464 -967 72 -109 107 -135
452 -336 830 -484 1963 -1092 2054 -1102 23 -3 33 12 120 187 183 364 553
1166 737 1595 178 414 385 947 504 1300 82 241 93 284 77 311 -18 29 -148 90
-354 164 -349 126 -3052 1015 -3086 1015 -5 0 -33 -51 -63 -112z m1315 -1248
c236 -38 461 -180 585 -370 91 -138 127 -270 128 -460 0 -246 -71 -400 -278
-599 -110 -105 -172 -136 -307 -150 -327 -36 -567 20 -776 181 -157 121 -262
349 -262 566 0 245 91 464 259 624 178 171 412 245 651 208z"/>
<path d="M6415 17964 c-174 -90 -1545 -881 -1573 -909 -11 -10 -9 -21 12 -62
58 -115 164 -165 676 -318 345 -104 487 -131 554 -105 26 9 26 11 56 140 18
80 98 342 206 679 126 393 185 592 182 614 -3 16 -17 11 -113 -39z"/>
<path d="M47917 18014 c-8 -8 9 -62 92 -281 84 -224 152 -426 226 -673 107
-359 157 -489 197 -514 22 -13 77 -2 341 70 394 107 651 204 766 288 53 39 96
111 85 140 -13 35 -336 230 -999 603 -542 305 -692 383 -708 367z"/>
<path d="M11355 17315 c-27 -8 -79 -21 -115 -30 -115 -27 -186 -66 -294 -159
-141 -121 -237 -280 -258 -424 -40 -285 135 -640 380 -770 336 -179 740 -99
980 193 124 151 137 194 136 460 0 221 -12 300 -60 402 -32 69 -124 162 -207
212 -145 86 -449 149 -562 116z"/>
<path d="M42824 17315 c-83 -18 -202 -67 -272 -111 -159 -102 -248 -216 -300
-384 -103 -336 82 -744 410 -904 278 -136 621 -83 848 131 295 277 350 658
136 940 -182 240 -550 387 -822 328z"/>
<path d="M466 16588 c-8 -50 -24 -230 -31 -353 -14 -263 -54 -1700 -80 -2865
-28 -1261 -58 -2386 -150 -5760 -120 -4391 -175 -6669 -175 -7272 l0 -308 38
0 c83 0 420 77 1252 285 1123 282 2430 575 3585 806 499 100 810 168 980 215
149 41 142 36 149 112 3 37 11 234 16 437 9 331 15 638 35 1685 11 571 23
1835 18 1922 l-6 88 -86 0 c-258 0 -1788 -136 -1866 -166 -35 -14 -55 -233
-80 -904 -19 -527 -35 -823 -43 -832 -12 -12 -746 -126 -1337 -208 -183 -25
-566 -69 -572 -66 0 1 5 152 13 336 43 1056 104 3258 179 6475 51 2187 71
2914 81 2924 10 10 628 -139 1399 -336 l460 -118 1 -740 c0 -731 5 -840 35
-896 5 -10 33 -25 62 -34 295 -84 1821 -302 1874 -267 15 10 28 232 43 707 39
1298 63 3207 41 3285 -9 34 -69 56 -441 162 -1109 315 -3576 1102 -5083 1622
-153 53 -284 96 -292 96 -7 0 -15 -15 -19 -32z m2024 -1437 c37 -10 30 -34
-15 -50 -78 -27 -265 -14 -265 19 0 12 23 28 50 33 39 7 202 6 230 -2z m420
-11 c80 -44 122 -61 177 -71 69 -12 103 -32 103 -59 0 -30 -46 -47 -141 -52
-96 -6 -126 -18 -139 -54 -7 -17 -17 -24 -36 -24 -24 0 -26 2 -20 33 7 39 -8
57 -64 76 -83 28 -107 97 -49 145 39 33 116 36 169 6z m-2057 -168 c21 -23 48
-129 41 -158 -11 -44 -58 -19 -105 54 -34 54 -36 71 -9 100 25 27 51 28 73 4z
m2637 -54 c31 -33 64 -150 55 -196 -11 -60 -85 -153 -85 -107 0 8 -9 24 -20
35 -28 28 -60 11 -60 -32 0 -36 -24 -68 -51 -68 -25 0 -32 16 -40 83 -6 47
-14 65 -43 97 -27 30 -36 49 -36 75 0 92 61 131 207 134 42 1 56 -3 73 -21z
m-2378 -478 c40 -40 43 -60 8 -60 -24 0 -80 56 -80 81 0 31 29 22 72 -21z
m2728 -137 c23 -29 22 -46 -4 -51 -23 -5 -46 16 -46 43 0 42 20 46 50 8z
m-2433 -313 c44 -33 103 -113 103 -140 0 -9 14 -56 30 -106 29 -84 29 -90 13
-102 -18 -14 -137 -12 -174 3 -36 14 -58 124 -59 288 0 84 1 87 23 87 13 0 42
-14 64 -30z m1623 -309 c5 -11 10 -30 10 -43 1 -22 2 -22 30 10 36 39 49 40
81 6 37 -40 92 -64 175 -74 92 -12 162 -47 210 -106 40 -49 41 -54 12 -54 -30
0 -378 90 -500 129 -134 44 -150 63 -102 120 30 36 68 41 84 12z m-1632 -113
c15 -15 16 -55 0 -64 -14 -9 -48 31 -48 57 0 22 29 26 48 7z m126 -4 c18 -17
20 -32 7 -53 -8 -12 -12 -13 -26 -1 -22 18 -37 48 -30 60 9 15 31 12 49 -6z
m3084 -706 c14 -14 16 -54 2 -63 -13 -8 -50 31 -50 55 0 23 29 27 48 8z m68
-983 c73 -56 83 -134 13 -105 -38 16 -129 105 -129 127 0 24 73 10 116 -22z
m-3241 -952 c-8 -35 -32 -73 -45 -73 -16 0 -11 33 10 68 25 40 45 43 35 5z
m-382 -1434 c19 -27 19 -27 -3 -70 -12 -24 -62 -89 -112 -144 -49 -55 -119
-142 -155 -192 -36 -51 -74 -95 -84 -98 -29 -10 -59 12 -59 43 0 26 12 44 122
179 34 41 48 67 48 89 0 40 47 110 117 174 63 58 93 62 126 19z m-619 -665
c23 -9 20 -54 -5 -80 -29 -31 -49 -20 -49 25 0 50 18 69 54 55z m194 -1419 c9
-28 12 -84 10 -183 -3 -137 -4 -145 -27 -163 -45 -37 -130 -18 -168 38 -28 40
-63 139 -63 177 0 39 15 56 52 56 35 0 68 32 68 64 0 33 36 57 80 54 31 -3 36
-7 48 -43z m10 -1551 c28 -19 27 -71 -1 -88 -40 -25 -108 52 -77 88 16 20 49
20 78 0z m65 -260 c66 -34 218 -155 254 -202 55 -73 -21 -111 -114 -56 -28 16
-66 55 -104 107 -54 71 -99 146 -99 162 0 10 32 5 63 -11z m1285 -3627 c25
-12 70 -44 99 -71 69 -62 71 -92 13 -148 -23 -21 -47 -38 -55 -38 -32 0 -151
189 -162 256 l-6 37 33 -6 c18 -4 53 -17 78 -30z m-503 -262 c0 -27 -3 -30
-30 -30 -21 0 -31 5 -33 18 -6 33 6 49 35 45 24 -3 28 -8 28 -33z"/>
<path d="M53780 16565 c-63 -18 -261 -84 -440 -145 -1566 -540 -3503 -1163
-4725 -1520 -331 -96 -422 -125 -492 -156 l-53 -23 0 -278 c0 -291 5 -494 45
-1973 43 -1587 74 -2842 110 -4480 81 -3692 148 -6410 161 -6547 4 -46 10 -63
22 -67 41 -13 316 -68 426 -86 166 -27 220 -26 279 5 51 28 57 27 102 -17 85
-84 569 -208 1065 -273 96 -12 176 -22 178 -21 1 2 -5 97 -13 212 -19 276 -39
997 -70 2524 -25 1223 -47 2062 -61 2336 -5 90 -3 123 5 129 18 11 193 23 495
34 306 12 303 13 336 -62 10 -23 37 -125 60 -227 155 -690 748 -3189 1060
-4465 139 -569 228 -885 269 -951 17 -28 31 -34 137 -62 437 -116 1680 -402
1938 -447 l39 -6 -7 56 c-18 156 -118 579 -529 2240 -184 743 -405 1638 -492
1990 -87 352 -204 820 -261 1040 -111 427 -174 712 -174 787 0 44 2 46 33 53
17 3 261 9 541 12 l509 5 -7 337 c-16 815 -30 1268 -131 4456 -136 4276 -163
5038 -186 5397 -11 183 -18 222 -40 225 -8 1 -66 -13 -129 -32z m-1860 -1257
c26 -28 25 -45 -1 -53 -27 -9 -69 2 -69 18 0 12 35 57 45 57 2 0 13 -10 25
-22z m-350 -33 c26 -32 -13 -81 -47 -59 -24 15 -27 38 -8 58 20 20 39 20 55 1z
m-1100 -479 c13 -24 13 -28 0 -36 -22 -14 -56 -12 -69 4 -8 10 -6 19 10 40 25
31 38 30 59 -8z m306 -70 c12 -50 -50 -120 -127 -145 -23 -8 -62 -39 -110 -89
-65 -68 -450 -507 -583 -664 -59 -71 -82 -80 -112 -45 -32 37 -47 123 -48 264
-1 158 1 161 111 145 131 -20 145 -13 357 182 365 334 494 423 512 352z m304
3 c0 -13 -42 -49 -57 -49 -25 0 -28 32 -5 51 21 17 62 16 62 -2z m-680 -829
c0 -24 -34 -90 -46 -90 -20 0 -17 27 7 66 20 33 39 44 39 24z m-300 -109 c-18
-63 -50 -95 -50 -50 0 27 31 79 46 79 9 0 10 -8 4 -29z m186 -78 c12 -45 -14
-77 -64 -81 -25 -2 -42 1 -42 8 0 13 79 100 91 100 5 0 12 -12 15 -27z m-300
-210 c-18 -47 -77 -132 -132 -189 -67 -70 -100 -83 -91 -36 8 44 58 155 81
180 29 32 85 61 120 62 23 0 27 -3 22 -17z m-697 -363 c-42 -90 -89 -148 -108
-136 -38 24 19 165 99 246 l45 45 3 -33 c2 -24 -9 -60 -39 -122z m361 11 c0
-23 -15 -43 -42 -57 -47 -24 -67 7 -28 46 20 20 70 28 70 11z m2344 -13 c36
-55 46 -246 76 -1443 16 -616 60 -2594 60 -2676 0 -29 -91 -42 -585 -84 -678
-56 -1265 -96 -1277 -86 -9 8 -24 367 -43 1026 -9 286 -27 840 -40 1230 -27
772 -42 1519 -31 1576 6 35 8 36 94 62 233 70 1054 277 1427 361 295 66 298
66 319 34z m-2714 -225 c-1 -83 -42 -191 -77 -199 -55 -14 -68 38 -29 115 50
97 106 142 106 84z m-125 -403 c21 -23 13 -50 -14 -50 -20 0 -51 34 -51 57 0
20 45 15 65 -7z m-49 -1491 c46 -22 90 -79 80 -104 -8 -22 -48 -18 -84 8 -40
30 -93 97 -86 108 9 15 45 10 90 -12z m-498 -307 c8 -55 -70 -212 -106 -212
-23 0 -36 26 -62 131 -27 106 -24 111 84 107 76 -3 81 -5 84 -26z m727 -7548
c27 -29 34 -91 13 -112 -37 -37 -128 16 -128 74 0 63 71 86 115 38z m3775
-320 c21 -54 -15 -150 -59 -161 -45 -11 -62 40 -41 119 18 64 82 91 100 42z
m-3825 -624 c14 -43 -44 -67 -68 -29 -16 26 -1 49 32 49 21 0 32 -6 36 -20z"/>
<path d="M7316 14453 c-19 -166 -32 -534 -56 -1548 -11 -473 -31 -1326 -45
-1895 -38 -1571 -77 -3433 -130 -6180 -14 -712 -29 -1513 -35 -1780 -5 -267
-10 -683 -9 -925 1 -453 5 -517 41 -539 21 -13 95 -2 460 65 150 27 433 79
628 115 502 91 1340 229 2460 404 531 83 1078 169 1215 190 138 22 390 58 560
80 171 22 335 45 365 51 114 21 195 42 208 53 35 34 59 845 77 2661 15 1487
60 4540 85 5780 6 264 13 859 17 1322 l6 842 -54 15 c-92 27 -299 71 -694 150
-688 136 -1162 217 -1197 203 -9 -3 -21 -28 -28 -59 -18 -83 -29 -442 -30
-928 0 -439 -10 -1064 -30 -1865 -42 -1718 -49 -2071 -80 -4220 -14 -986 -29
-1539 -45 -1779 -8 -115 -15 -217 -15 -226 0 -15 -18 -18 -142 -24 -166 -8
-399 -31 -873 -86 -482 -57 -710 -80 -787 -80 l-68 0 0 93 c0 50 9 499 20 997
43 1979 82 4098 121 6560 6 388 11 1015 12 1395 l2 690 -40 13 c-83 27 -338
95 -910 242 -652 167 -780 201 -904 236 -46 13 -87 24 -91 24 -5 0 -11 -21
-14 -47z m3062 -11117 c35 -18 66 -52 58 -65 -9 -13 -89 -25 -115 -16 -26 8
-28 50 -4 77 19 22 26 22 61 4z"/>
<path d="M45455 14086 c-1015 -256 -1482 -367 -2310 -551 -652 -144 -902 -209
-916 -235 -11 -24 -372 -4449 -484 -5935 -25 -330 -52 -658 -60 -730 -23 -210
-82 -908 -200 -2400 -31 -385 -69 -851 -85 -1035 -50 -558 -50 -653 -2 -679 9
-5 44 -12 77 -16 124 -14 589 -77 845 -115 451 -68 866 -120 945 -120 25 0 37
6 46 22 6 12 18 123 25 252 15 260 23 348 64 731 39 357 73 727 110 1187 43
534 54 601 106 614 48 12 786 -48 1314 -106 289 -32 357 -43 371 -57 32 -32
69 -329 179 -1433 80 -804 139 -1342 161 -1464 10 -60 13 -66 42 -75 139 -45
1434 -317 1792 -376 83 -14 160 -27 173 -30 22 -5 22 -4 22 94 0 181 -42 618
-170 1771 -44 393 -95 875 -115 1070 -231 2327 -254 2561 -295 2900 -40 331
-106 962 -191 1810 -89 898 -144 1419 -329 3085 -82 743 -161 1458 -176 1590
-37 348 -57 426 -110 432 -10 2 -383 -89 -829 -201z m-1965 -2253 c61 -27 104
-63 127 -106 33 -64 -16 -75 -110 -25 -83 45 -127 88 -127 125 0 51 8 51 110
6z m1183 -191 c9 -10 23 -37 31 -60 16 -45 51 -336 91 -767 24 -253 89 -902
205 -2035 75 -733 99 -988 124 -1297 l22 -283 -86 0 c-174 0 -1307 47 -1347
56 -20 4 -23 11 -23 47 0 55 31 520 80 1212 74 1051 169 2510 185 2850 3 72 8
140 11 152 9 46 79 63 454 113 118 15 220 28 226 29 6 1 18 -7 27 -17z"/>
<path d="M40270 12994 c-1203 -212 -3454 -536 -4650 -669 -247 -28 -398 -55
-435 -79 -12 -8 -25 -27 -29 -43 -3 -15 -12 -149 -18 -296 -9 -207 -9 -554 0
-1515 7 -686 17 -1710 22 -2277 6 -566 14 -1520 20 -2120 16 -1667 37 -2740
56 -2790 16 -39 277 -72 1294 -160 1136 -98 2800 -270 3490 -360 259 -33 838
-105 851 -105 8 0 9 145 5 493 -13 948 -34 1546 -57 1573 -26 32 -159 43
-1399 124 -1236 80 -1889 124 -2102 141 l-148 12 0 952 0 952 693 7 c380 3
806 9 945 13 l252 6 0 681 c0 650 -11 1163 -26 1222 l-7 27 -276 -6 c-152 -4
-440 -16 -641 -27 -418 -23 -874 -36 -912 -27 -32 9 -34 23 -48 362 -11 285
-31 1517 -25 1523 15 15 292 50 1055 132 206 22 452 52 545 65 94 13 496 61
895 105 399 44 812 92 919 105 106 14 197 25 202 25 12 0 11 1140 -1 1445 -10
257 -25 420 -41 472 -6 18 -22 42 -36 53 -39 30 -158 26 -393 -16z m-796 -783
c107 -51 138 -84 144 -155 6 -69 -5 -125 -24 -133 -23 -9 -92 45 -160 126
-103 119 -130 201 -67 201 14 0 62 -17 107 -39z m-3076 -853 c22 -22 13 -72
-19 -116 -29 -39 -74 -72 -99 -72 -15 0 -12 85 4 124 24 58 85 93 114 64z
m-153 -674 c13 -13 15 -34 13 -105 -3 -87 -3 -88 30 -121 66 -69 21 -165 -91
-196 -47 -13 -67 -7 -67 22 0 11 16 110 37 219 37 201 44 215 78 181z m38
-561 c12 -41 2 -94 -24 -127 -40 -50 -119 -21 -119 44 0 21 12 42 44 76 53 55
85 57 99 7z m-83 -338 c0 -30 -10 -55 -21 -55 -10 0 -12 73 -3 83 12 11 24 -3
24 -28z m-255 -1350 c-10 -225 -59 -620 -91 -732 -17 -62 -39 -73 -87 -46 -42
25 -60 78 -54 158 5 72 32 128 81 173 20 18 36 38 36 45 0 6 -22 33 -50 58
-42 39 -50 51 -50 82 0 42 22 61 83 71 30 6 41 14 51 37 17 40 9 77 -20 96
-16 10 -24 25 -24 45 0 30 34 123 86 233 l29 60 8 -75 c4 -41 5 -133 2 -205z
m3405 -4580 c9 -11 10 -29 2 -72 -13 -76 3 -135 55 -210 78 -111 132 -246 140
-349 5 -56 3 -63 -18 -78 -53 -37 -120 -3 -174 89 -60 103 -155 389 -155 468
0 48 3 53 58 109 63 62 72 67 92 43z"/>
<path d="M14254 12941 c-12 -5 -24 -22 -27 -38 -14 -64 -28 -738 -22 -1033 9
-441 20 -529 80 -670 51 -118 51 -115 11 -153 -30 -27 -38 -44 -50 -102 -55
-271 -80 -1351 -106 -4730 -6 -726 -15 -1824 -20 -2440 -5 -616 -7 -1121 -6
-1123 2 -1 62 6 133 18 696 108 3404 379 5053 505 256 20 488 39 515 43 l50 7
12 59 c45 228 72 910 80 2019 l6 829 -154 -6 c-85 -4 -334 -11 -554 -16 -690
-18 -1210 -39 -1242 -51 -14 -5 -26 -22 -33 -46 -16 -57 -29 -369 -30 -730 l0
-322 -32 -6 c-80 -13 -1795 -132 -1802 -125 -2 3 0 158 5 345 22 914 37 1808
64 3750 23 1701 31 2109 64 3349 5 176 7 325 4 332 -8 21 -341 90 -978 203
-690 123 -961 158 -1021 132z m1140 -2537 c20 -19 20 -19 1 -58 -9 -18 -28
-40 -44 -49 -35 -20 -119 -23 -145 -4 -16 12 -15 16 24 51 40 36 111 75 137
76 6 0 19 -7 27 -16z m50 -762 c22 -44 36 -136 29 -205 -5 -60 -4 -65 21 -84
14 -12 26 -28 26 -37 0 -42 -131 -44 -191 -3 -58 40 -74 71 -74 146 0 57 4 74
28 110 27 40 107 101 134 101 7 0 19 -12 27 -28z m-899 -5267 c40 -39 28 -85
-22 -85 -47 0 -82 67 -51 98 19 19 47 14 73 -13z m3684 -220 c35 -38 40 -48
31 -65 -17 -33 -266 -140 -291 -125 -5 4 -9 21 -9 39 0 66 136 194 206 196 13
0 38 -18 63 -45z"/>
<path d="M19361 12256 c-19 -23 -31 -436 -34 -1153 -1 -426 1 -655 8 -662 11
-11 379 -42 795 -66 578 -34 1123 -79 1148 -94 7 -4 8 -912 2 -2771 -5 -1521
-9 -3089 -10 -3484 l0 -719 158 6 c86 4 285 11 442 17 817 29 1132 45 1274 66
55 8 100 15 102 17 1 1 8 1532 14 3402 6 1870 13 3401 14 3403 2 1 185 -4 407
-13 222 -8 661 -18 975 -22 l572 -6 7 324 c3 178 7 509 8 734 2 455 -2 492
-55 544 -65 64 -293 90 -1133 131 -1614 78 -4083 266 -4545 345 -106 19 -134
19 -149 1z m3366 -1043 c13 -19 17 -46 17 -101 -1 -95 -17 -112 -103 -112 -66
0 -105 17 -109 47 -4 30 32 96 80 149 49 53 88 59 115 17z m-797 -129 c50 -20
75 -61 60 -98 -10 -28 -35 -33 -61 -13 -24 19 -69 90 -69 109 0 22 18 23 70 2z
m257 -1704 c16 -31 17 -229 2 -315 -6 -33 -20 -79 -33 -101 -19 -34 -26 -39
-56 -39 -28 0 -37 5 -48 27 -21 45 0 104 59 159 55 51 60 71 23 95 -80 53 -69
212 14 202 16 -2 31 -13 39 -28z m270 -1259 c72 -34 123 -75 123 -99 0 -20
-44 -12 -155 27 -96 34 -142 68 -131 96 9 26 79 15 163 -24z"/>
<path d="M33565 12104 c-363 -22 -621 -40 -1000 -69 -810 -63 -1407 -98 -2549
-151 l-569 -26 -266 -191 c-146 -105 -370 -267 -497 -361 -126 -94 -271 -198
-322 -231 l-92 -60 0 -3772 0 -3773 23 -4 c12 -2 375 -12 807 -21 993 -20
1704 -42 2785 -85 1190 -48 2081 -98 2254 -126 l33 -5 -6 1008 c-9 1272 -23
2251 -36 2415 -16 209 -11 199 -168 329 -351 291 -837 730 -830 749 2 4 91 81
198 170 223 187 348 295 613 533 l187 169 -1 61 c-3 439 -67 3429 -73 3434 -8
8 -383 13 -491 7z m-1456 -1812 c23 -43 42 -404 54 -1035 l4 -208 -196 -158
c-108 -87 -234 -196 -281 -241 l-85 -83 -70 -8 c-38 -5 -341 -12 -672 -15
l-601 -7 -6 44 c-41 292 -46 730 -16 1288 10 200 21 365 22 366 2 1 354 17
783 34 429 17 809 33 845 34 189 9 209 8 219 -11z m-2335 -2264 c46 -20 46
-68 0 -68 -53 0 -82 38 -52 68 15 15 21 15 52 0z m-279 -65 c3 -16 13 -54 22
-86 12 -43 14 -60 5 -69 -17 -17 -169 -21 -226 -6 -68 18 -79 39 -41 78 35 36
176 110 211 110 18 0 25 -7 29 -27z m2308 -1246 c111 -107 248 -236 304 -288
l102 -94 1 -69 c0 -85 -31 -1160 -34 -1163 -1 -1 -283 2 -626 7 -344 5 -777 9
-962 10 l-338 0 0 895 0 895 675 0 676 0 202 -193z m-2522 -2052 c41 -41 83
-120 75 -140 -7 -19 -66 -19 -111 -1 -42 18 -75 69 -75 117 0 69 55 81 111 24z
m486 -630 c29 -9 55 -20 58 -25 22 -35 -48 -90 -114 -90 -51 0 -90 19 -125 60
-29 35 -32 50 -13 69 15 16 118 9 194 -14z"/>
</g>
</svg>
