<?xml version="1.0" standalone="no"?>
<!DOCTYPE svg PUBLIC "-//W3C//DTD SVG 20010904//EN"
 "http://www.w3.org/TR/2001/REC-SVG-20010904/DTD/svg10.dtd">
<svg version="1.0" xmlns="http://www.w3.org/2000/svg"
 width="350" height="345" viewBox="0 0 1059.000000 1047.000000"
 preserveAspectRatio="xMidYMid meet">

<g transform="translate(0.000000,1047.000000) scale(0.100000,-0.100000)"
fill="#000000" stroke="none">
<path d="M4513 10311 c-61 -17 -207 -62 -325 -102 -538 -181 -665 -243 -828
-409 -95 -96 -157 -195 -203 -324 -59 -167 -62 -196 -62 -616 0 -212 2 -440 5
-507 l5 -123 -120 -4 c-129 -4 -219 -27 -308 -79 -167 -98 -302 -287 -341
-479 -20 -95 -21 -280 -2 -368 38 -177 111 -311 307 -558 l42 -53 -126 -257
c-214 -439 -325 -759 -372 -1069 -8 -57 -15 -122 -15 -145 l0 -43 32 40 c18
22 57 65 86 95 51 52 53 53 47 25 -37 -167 -48 -255 -52 -436 -6 -212 4 -306
53 -499 38 -155 137 -420 156 -420 5 0 8 26 8 58 0 68 19 227 30 256 10 25 7
33 54 -139 50 -178 76 -244 172 -433 142 -279 249 -426 455 -627 119 -116 286
-255 307 -255 5 0 -1 32 -14 72 -27 81 -69 267 -62 274 3 2 33 -33 68 -78 156
-204 414 -424 706 -604 452 -278 543 -341 689 -474 44 -40 110 -107 148 -149
67 -76 184 -241 208 -294 16 -35 25 -34 45 5 41 80 163 245 247 334 154 163
332 294 682 504 415 249 600 397 814 655 46 55 87 101 91 103 11 4 -23 -148
-56 -256 -14 -46 -23 -86 -20 -89 13 -13 172 121 317 266 222 222 362 416 483
672 64 135 137 333 162 442 10 42 21 77 26 77 4 0 8 -2 8 -4 0 -2 5 -28 10
-57 6 -30 11 -100 11 -157 0 -74 4 -102 12 -99 31 10 142 322 183 512 46 211
44 528 -5 768 -9 48 -14 87 -10 87 4 0 40 -38 81 -85 40 -47 76 -85 81 -85 10
0 9 5 -8 121 -56 369 -179 733 -393 1161 l-113 227 71 88 c199 246 283 431
297 655 11 169 -35 351 -122 483 -50 76 -156 180 -229 224 -104 62 -177 83
-315 89 l-124 5 6 161 c30 755 14 947 -96 1179 -76 158 -158 251 -312 353
-119 77 -259 136 -628 264 -332 114 -428 140 -547 147 -134 7 -196 -9 -265
-69 -58 -51 -75 -89 -75 -168 0 -60 0 -60 -30 -60 -16 0 -75 5 -131 12 -93 10
-169 7 -374 -16 -5 0 -9 13 -8 29 9 104 -44 192 -144 241 -46 23 -71 28 -157
31 -87 3 -116 -1 -213 -26z m262 -139 c-6 -5 -39 -16 -75 -26 -77 -20 -225
-90 -370 -174 -57 -33 -107 -59 -109 -56 -3 2 11 20 29 39 19 19 29 35 23 35
-29 0 -375 -145 -503 -211 -209 -108 -352 -273 -420 -486 -32 -98 -60 -250
-60 -320 0 -23 -5 -45 -11 -49 -19 -11 -6 344 15 436 51 217 187 380 415 495
154 77 683 266 854 305 83 19 229 27 212 12z m1375 -46 c145 -42 367 -119 576
-199 443 -170 594 -389 594 -859 0 -86 -4 -138 -10 -138 -5 0 -10 20 -10 44 0
110 -46 305 -100 422 -89 193 -185 290 -389 393 -146 73 -464 205 -482 199 -6
-2 -1 -15 11 -31 12 -16 20 -30 17 -33 -3 -3 -33 12 -68 34 -162 98 -386 202
-437 202 -12 0 -24 5 -28 12 -16 26 167 0 326 -46z m-390 -511 c290 -24 521
-60 744 -116 43 -11 81 -17 84 -14 3 3 -12 23 -33 45 -21 22 -36 42 -33 46 14
14 199 -126 298 -225 113 -113 157 -183 199 -311 42 -131 53 -224 58 -502 6
-294 -2 -388 -42 -509 -23 -69 -81 -177 -90 -168 -2 3 5 30 16 62 11 32 24 91
29 130 17 134 8 591 -12 585 -5 -2 -22 -32 -36 -67 -31 -74 -56 -95 -41 -34
19 75 22 322 6 400 -37 174 -140 305 -298 382 -84 40 -119 50 -119 32 0 -5 7
-15 16 -22 20 -17 74 -109 74 -128 0 -8 -24 9 -53 37 -133 125 -356 182 -908
232 -331 29 -950 -11 -1237 -81 -152 -38 -236 -79 -329 -164 -29 -26 -53 -44
-53 -41 0 16 46 95 78 135 l36 44 -28 -7 c-53 -13 -174 -76 -225 -116 -156
-123 -227 -391 -176 -659 9 -46 14 -85 12 -87 -2 -2 -19 29 -38 71 -19 41 -37
74 -40 75 -14 0 -20 -64 -25 -285 -7 -240 5 -365 41 -451 26 -63 -7 -33 -42
37 -109 219 -123 665 -33 1046 49 209 156 347 398 519 58 41 107 72 110 69 3
-3 -11 -22 -31 -43 -44 -45 -46 -57 -9 -47 81 20 338 69 482 91 321 50 905 68
1250 39z m-2682 -1616 c52 -9 66 -16 70 -33 3 -11 23 -55 44 -97 49 -98 132
-186 217 -229 l64 -32 -57 -56 -56 -57 -57 65 c-170 195 -246 245 -368 245
-51 -1 -82 -7 -115 -23 -45 -21 -139 -107 -128 -117 2 -3 24 2 48 10 49 17
107 19 144 5 33 -12 33 -30 1 -30 -14 0 -42 -9 -63 -19 -139 -72 -209 -295
-148 -469 8 -23 11 -42 6 -42 -14 0 -87 129 -110 195 -44 129 -34 311 26 433
62 126 209 235 341 252 32 4 62 8 67 9 5 0 38 -4 74 -10z m4611 -4 c90 -22
153 -59 221 -131 103 -111 146 -233 138 -399 -4 -80 -11 -115 -35 -177 -30
-77 -91 -183 -100 -174 -3 2 3 39 12 81 36 162 0 301 -101 394 -36 33 -67 52
-100 60 -58 15 -48 32 23 38 44 5 88 -3 136 -22 28 -12 20 12 -18 54 -54 59
-115 85 -205 85 -109 0 -170 -35 -321 -186 l-116 -117 -48 49 c-27 27 -47 51
-44 53 2 2 29 17 58 33 107 57 192 161 236 288 21 60 21 61 70 73 70 16 120
15 194 -2z m-3745 -415 c77 -11 142 -22 144 -25 3 -2 -7 -18 -21 -35 -58 -69
-56 -168 3 -210 37 -26 76 -24 73 5 -3 34 18 98 43 132 13 17 49 44 79 58 53
26 59 27 192 23 129 -3 142 -5 203 -34 89 -42 172 -107 272 -213 146 -153 226
-293 214 -377 -7 -53 -43 -137 -56 -129 -5 3 -10 13 -10 21 0 33 -61 146 -104
192 -26 27 -73 64 -105 81 -64 34 -142 64 -148 57 -2 -2 26 -35 64 -73 79 -79
119 -148 134 -230 27 -147 -50 -247 -176 -229 -42 7 -67 21 -229 134 -122 85
-154 96 -276 96 -100 1 -109 -1 -175 -33 -67 -33 -206 -154 -192 -167 3 -3 32
4 64 16 41 16 82 23 143 24 131 2 181 -19 98 -41 -59 -16 -145 -78 -190 -138
-20 -27 -35 -52 -32 -54 3 -3 33 -4 68 -3 l62 4 24 -53 c35 -75 114 -152 178
-175 29 -10 52 -22 52 -26 0 -4 -33 -8 -72 -10 -41 -2 -72 -7 -71 -13 3 -15
92 -35 158 -35 37 0 87 10 130 24 39 14 71 23 72 22 1 -1 -23 -62 -53 -136
-64 -158 -252 -713 -285 -847 -13 -51 -27 -93 -31 -93 -27 0 -45 371 -25 543
l8 67 -74 0 c-137 0 -263 50 -361 145 -91 87 -146 233 -146 384 0 67 6 102 35
236 6 28 3 26 -47 -27 -186 -197 -227 -453 -111 -688 84 -173 311 -319 495
-320 43 0 40 9 56 -215 l9 -130 -107 -110 c-58 -60 -115 -125 -125 -142 -25
-43 -35 -42 -35 5 1 50 19 95 67 169 55 85 69 139 54 209 -20 89 -81 144 -158
144 -61 -1 -103 -46 -103 -111 0 -63 53 -88 103 -49 34 27 46 25 58 -7 21 -56
-32 -110 -99 -100 -20 3 -44 8 -53 12 -13 5 -18 -1 -21 -32 -9 -74 10 -200 41
-268 16 -36 26 -65 22 -65 -16 0 -122 136 -145 185 -64 134 -60 340 8 462 l24
41 -42 41 c-23 23 -47 41 -53 41 -16 0 -77 -104 -98 -165 -10 -28 -20 -100
-24 -165 l-6 -115 -20 50 c-16 39 -20 74 -20 155 0 119 13 176 62 271 l33 65
-30 68 c-31 67 -31 68 -51 50 -35 -31 -99 -175 -111 -246 -6 -38 -14 -68 -19
-68 -12 0 -22 142 -14 201 10 78 39 153 85 224 39 60 40 64 40 148 0 48 -4 87
-9 87 -12 0 -72 -76 -106 -134 -37 -63 -43 -45 -14 41 50 154 152 323 272 449
49 52 85 94 79 94 -18 0 -220 -127 -287 -180 -109 -87 -225 -233 -318 -402
-40 -71 -118 -265 -137 -339 -6 -24 -13 -52 -16 -61 -12 -39 18 -14 65 56 27
40 73 97 101 127 l51 54 -5 -115 c-4 -98 -10 -132 -41 -225 -19 -60 -48 -166
-63 -235 -37 -174 -38 -417 -3 -593 13 -64 27 -119 31 -122 4 -2 10 55 13 128
7 147 23 233 72 385 32 98 32 104 19 149 -16 51 -18 150 -5 172 6 9 15 -8 31
-55 86 -263 268 -511 521 -706 82 -64 85 -68 81 -102 -3 -23 -8 -33 -16 -29
-116 70 -288 194 -351 254 l-81 78 -55 -55 c-51 -52 -54 -53 -60 -31 -12 44 2
86 39 118 l36 32 -29 53 c-25 45 -45 68 -45 49 0 -2 -7 -30 -15 -61 -34 -131
-38 -336 -9 -478 26 -128 121 -355 183 -435 l18 -24 42 23 c45 26 48 32 25 50
-29 25 -33 45 -20 90 12 41 13 42 27 23 41 -59 157 -86 213 -50 41 27 46 22
46 -54 0 -207 82 -508 181 -664 16 -25 24 -45 19 -45 -15 0 -145 95 -238 173
-208 176 -374 396 -474 629 -39 92 -58 119 -58 82 0 -47 34 -222 61 -309 16
-55 32 -109 36 -120 11 -40 -24 7 -98 130 -90 149 -136 247 -184 395 -88 273
-116 486 -97 743 7 89 18 190 26 225 7 34 10 62 5 62 -21 0 -118 -176 -160
-291 -17 -46 -35 -88 -40 -94 -12 -12 -3 144 17 290 29 211 115 510 200 694
19 41 33 79 31 84 -4 13 -156 -132 -203 -193 -21 -28 -41 -50 -45 -50 -11 0
84 257 155 420 137 314 256 516 380 647 64 68 245 223 260 223 3 0 -3 -19 -15
-42 -12 -24 -24 -69 -26 -103 -4 -50 -1 -68 19 -105 34 -62 90 -100 160 -107
90 -9 142 21 300 174 148 143 205 186 282 213 64 23 205 34 269 22 74 -15 66
4 -18 45 -80 38 -158 51 -298 52 -79 1 -120 19 -142 61 -32 61 -10 164 48 227
31 35 14 38 -42 7 -79 -42 -146 -119 -159 -181 -13 -60 4 -138 38 -168 32 -29
25 -43 -17 -38 -48 5 -99 30 -122 59 -14 17 -29 24 -54 24 -44 0 -185 -49
-291 -101 -44 -21 -81 -37 -83 -36 -6 7 301 318 375 380 61 51 229 177 236
177 0 0 64 -9 140 -20z m2930 -44 c108 -76 239 -187 356 -305 87 -87 183 -198
165 -190 -6 2 -48 23 -95 45 -101 49 -195 82 -256 91 -39 5 -49 2 -72 -19 -15
-14 -37 -31 -49 -37 -25 -13 -113 -31 -113 -24 0 3 11 18 25 35 76 91 46 236
-67 318 -36 27 -100 60 -114 60 -2 0 12 -25 32 -55 61 -92 58 -185 -8 -240
-27 -23 -38 -25 -124 -25 -113 0 -217 -22 -297 -62 -61 -30 -70 -53 -14 -37
43 12 155 11 219 -2 104 -22 182 -74 334 -221 166 -160 202 -182 294 -183 85
0 148 34 179 98 27 56 28 146 1 205 -10 23 -16 42 -11 42 15 0 196 -157 257
-222 120 -129 248 -353 383 -668 79 -186 154 -390 143 -390 -4 0 -17 15 -29
33 -29 41 -211 223 -217 216 -3 -3 14 -53 38 -111 64 -154 133 -372 161 -506
31 -151 60 -452 44 -452 -3 0 -16 30 -28 68 -22 67 -119 270 -146 306 -22 29
-29 13 -17 -36 23 -90 35 -273 29 -437 -12 -342 -112 -660 -314 -998 -53 -88
-85 -130 -69 -88 18 49 57 199 70 275 34 198 26 217 -34 77 -89 -206 -216
-384 -402 -563 -95 -91 -281 -234 -306 -234 -5 0 10 37 33 83 96 185 152 388
162 590 3 59 9 107 12 107 3 -1 17 -7 31 -15 34 -19 114 -19 153 1 18 9 44 28
59 42 30 28 32 26 41 -40 5 -33 2 -41 -25 -63 -17 -14 -29 -27 -27 -29 2 -1
21 -15 41 -30 l37 -27 31 43 c50 67 137 254 165 353 38 131 51 279 37 423 -11
114 -28 192 -42 192 -7 0 -70 -96 -70 -106 0 -3 16 -18 35 -35 27 -24 35 -39
35 -64 0 -69 -8 -71 -66 -14 l-53 53 -83 -80 c-46 -44 -144 -121 -221 -172
-77 -51 -141 -92 -143 -92 -2 0 -4 17 -4 38 0 32 6 41 37 62 21 14 82 63 136
109 207 176 371 415 437 639 11 40 25 70 29 68 17 -11 19 -103 4 -174 -16 -71
-16 -73 10 -160 43 -141 57 -216 70 -371 7 -80 15 -141 19 -135 4 5 17 57 29
115 19 86 23 136 23 289 1 208 -8 263 -74 477 -22 69 -44 151 -49 182 -12 67
-20 221 -12 220 8 0 134 -154 168 -204 15 -21 28 -34 30 -28 14 40 -93 330
-167 454 -92 155 -243 321 -370 406 -60 40 -177 103 -191 103 -6 0 22 -35 61
-77 92 -98 160 -194 215 -303 42 -83 100 -248 91 -257 -3 -3 -17 19 -31 49
-34 67 -95 148 -112 148 -10 0 -13 -22 -13 -82 0 -80 2 -86 44 -155 69 -115
90 -193 84 -314 -6 -118 -22 -149 -33 -62 -4 32 -17 86 -30 120 -22 61 -81
164 -94 162 -3 0 -21 -31 -39 -69 l-33 -69 25 -38 c54 -81 70 -147 70 -288 1
-113 -2 -136 -21 -175 l-21 -45 -1 95 c-1 107 -26 215 -68 292 -44 81 -51 83
-106 34 l-48 -43 25 -44 c42 -75 59 -161 54 -275 -4 -86 -9 -110 -35 -165 -27
-57 -132 -199 -153 -207 -5 -2 5 28 21 67 29 69 48 172 49 260 0 41 -1 43 -22
36 -13 -4 -42 -10 -65 -12 -35 -4 -46 -1 -67 21 -29 28 -35 76 -11 96 11 9 20
8 44 -9 71 -51 133 7 97 92 -27 66 -119 88 -183 45 -46 -32 -83 -109 -83 -173
0 -54 16 -92 80 -193 30 -48 57 -147 43 -162 -3 -3 -19 13 -36 35 -17 22 -76
86 -130 141 l-98 101 11 129 c5 71 13 148 16 170 l5 41 66 7 c127 13 266 73
352 151 189 172 234 454 112 700 -36 71 -140 205 -160 205 -5 0 3 -37 16 -82
63 -217 12 -434 -133 -567 -104 -95 -219 -141 -356 -141 -43 0 -78 -3 -78 -7
0 -5 7 -44 15 -88 19 -106 19 -274 -1 -399 -17 -109 -29 -136 -39 -90 -29 132
-216 699 -299 908 -31 77 -54 141 -53 143 2 1 36 -9 76 -22 80 -27 169 -32
235 -12 70 21 57 37 -30 37 -81 0 -87 9 -21 30 53 17 138 99 176 171 l33 61
64 -4 c36 -2 64 0 64 5 0 20 -43 78 -87 116 -40 36 -91 65 -148 86 -19 7 -19
8 5 17 14 5 63 10 110 11 65 0 98 -4 139 -21 30 -12 57 -20 59 -17 7 7 -56 82
-96 113 -77 61 -140 85 -232 90 -76 4 -94 1 -155 -23 -39 -15 -126 -64 -195
-110 -69 -45 -142 -88 -163 -94 -118 -39 -219 62 -204 205 8 80 53 159 135
243 40 40 71 75 69 77 -7 7 -118 -35 -162 -60 -80 -48 -161 -152 -189 -247 -6
-20 -15 -38 -21 -40 -16 -6 -54 101 -55 151 0 59 31 123 110 230 76 103 157
183 259 259 125 92 161 104 328 109 79 2 154 1 168 -2 37 -9 105 -75 126 -121
10 -22 19 -60 19 -84 0 -42 1 -43 28 -36 92 23 117 150 45 235 -14 17 -24 33
-22 35 2 2 55 10 118 19 63 9 116 18 119 21 15 15 53 -2 136 -59z m-1671 -158
l88 -117 66 87 c116 154 114 152 209 152 l83 0 -76 -77 c-93 -96 -184 -215
-240 -312 l-42 -73 -25 50 c-35 70 -166 241 -253 333 -40 42 -73 78 -73 80 0
2 39 2 87 -1 l87 -5 89 -117z m-1639 -377 c15 -16 15 -22 5 -40 -7 -11 -11
-23 -7 -26 3 -3 47 10 97 28 50 19 91 33 91 30 0 -3 -19 -28 -42 -56 -87 -103
-175 -133 -237 -81 -52 43 -40 122 22 149 43 19 51 18 71 -4z m3537 3 c42 -21
65 -76 48 -116 -24 -60 -104 -75 -175 -33 -40 24 -138 124 -129 133 2 3 21 -2
42 -11 21 -8 62 -22 91 -31 l53 -15 -6 30 c-7 32 7 59 32 59 8 0 28 -7 44 -16z
m-1698 -350 c203 -122 245 -183 332 -484 20 -69 48 -168 61 -220 70 -266 80
-260 49 25 -13 116 -26 225 -29 243 -9 58 10 34 59 -75 78 -179 194 -540 274
-859 61 -239 76 -380 61 -566 -23 -289 -62 -407 -152 -454 -42 -22 -102 -17
-232 20 -67 19 -182 51 -256 71 -171 47 -180 52 -180 111 0 76 17 95 141 159
61 32 136 77 166 99 135 100 201 294 174 512 -10 83 -46 194 -62 194 -5 0 -6
-27 -2 -62 l6 -63 -64 65 c-46 47 -88 77 -153 110 l-89 45 -162 3 c-89 2 -193
-1 -231 -7 -101 -15 -186 -62 -268 -144 l-68 -69 7 61 c8 70 -4 80 -29 24 -31
-70 -46 -148 -46 -244 0 -263 82 -389 335 -517 122 -61 146 -85 153 -151 5
-55 -15 -85 -65 -97 -16 -4 -129 -36 -253 -72 -124 -36 -239 -67 -257 -69 -22
-4 -47 3 -83 23 -92 50 -121 108 -147 294 -20 147 -23 421 -4 515 37 192 157
624 242 871 46 135 129 315 136 296 4 -11 -7 -116 -38 -367 -4 -38 -8 -83 -8
-100 l0 -30 14 26 c8 15 24 62 36 105 156 580 194 651 405 769 35 20 76 51 91
70 l28 35 23 -30 c12 -16 51 -46 85 -66z m-1062 -191 c30 -59 72 -83 149 -83
71 0 90 -11 57 -32 -48 -32 -95 -38 -174 -22 -35 7 -82 53 -109 106 -28 55
-28 53 6 67 41 16 47 13 71 -36z m1992 30 c25 -15 -37 -124 -88 -155 -37 -22
-111 -24 -165 -2 -61 25 -51 40 31 48 106 10 125 23 153 109 4 13 12 16 33 11
16 -4 32 -9 36 -11z m-2806 -309 c3 -8 -1 -22 -9 -30 -13 -14 -17 -14 -32 1
-13 13 -14 20 -5 31 15 19 38 18 46 -2z m3588 6 c10 -15 -5 -50 -20 -50 -21 0
-37 34 -23 48 15 15 35 15 43 2z m-3581 -176 c43 -42 -10 -109 -54 -69 -25 23
-25 40 0 65 24 24 34 25 54 4z m3580 0 c25 -25 20 -63 -10 -76 -49 -22 -85 32
-48 73 21 23 37 24 58 3z m-3484 -194 c11 -11 20 -27 20 -35 0 -16 -34 -55
-48 -55 -18 0 -52 33 -52 51 0 20 33 59 50 59 6 0 19 -9 30 -20z m3382 3 c10
-9 18 -26 18 -38 0 -52 -67 -61 -85 -11 -8 24 -6 31 14 47 28 23 30 23 53 2z
m-3190 -159 c25 -54 -40 -107 -83 -68 -27 25 -22 74 9 90 31 16 61 7 74 -22z
m3040 2 c26 -38 -13 -93 -56 -82 -50 12 -59 82 -14 103 24 11 55 1 70 -21z
m-2831 -68 c13 -24 -12 -68 -39 -68 -43 0 -57 58 -21 84 25 17 45 12 60 -16z
m2594 12 c24 -27 13 -68 -22 -76 -45 -12 -70 41 -36 78 21 23 36 23 58 -2z
m-1167 -205 c34 -8 80 -24 100 -34 38 -20 115 -91 107 -99 -2 -3 -25 5 -51 18
-88 41 -174 52 -349 47 -163 -5 -232 -19 -312 -61 -44 -22 -42 -8 5 36 77 74
176 106 332 107 60 0 132 -6 168 -14z m-417 -478 c40 -30 88 -127 63 -127 -11
0 -159 80 -184 100 -21 17 -23 21 -10 30 21 14 112 12 131 -3z m629 3 c13 -9
10 -14 -15 -35 -40 -33 -173 -100 -182 -92 -11 11 29 87 60 113 21 18 40 24
75 24 26 0 54 -5 62 -10z m-1596 -82 c13 -109 44 -243 112 -479 36 -126 64
-234 62 -240 -6 -19 -175 167 -212 234 -19 34 -45 95 -57 135 -13 39 -26 72
-29 72 -10 0 -57 -115 -76 -185 -20 -76 -32 -285 -15 -285 6 0 13 6 15 13 20
66 51 158 63 181 l15 29 31 -56 c16 -31 59 -92 95 -134 103 -124 130 -200 98
-278 -17 -39 -42 -55 -88 -55 -59 0 -103 62 -78 109 14 28 31 26 60 -4 28 -30
40 -31 68 -5 31 29 36 63 17 105 -30 62 -108 83 -181 49 -75 -36 -109 -137
-80 -236 31 -109 109 -167 224 -168 l62 0 0 -69 c0 -135 72 -354 161 -485 26
-39 46 -73 44 -75 -8 -8 -248 184 -302 243 -159 170 -262 350 -313 552 -26
100 -42 270 -35 358 14 166 72 374 141 506 33 63 166 230 183 230 5 0 12 -28
15 -62z m2573 -73 c198 -262 259 -691 147 -1040 -57 -176 -149 -319 -313 -485
-96 -97 -260 -235 -268 -226 -3 3 9 25 27 51 73 106 139 291 165 465 8 52 15
98 15 103 0 4 25 7 55 7 128 0 221 87 232 217 4 50 1 65 -24 112 -33 63 -76
91 -141 91 -89 0 -147 -107 -90 -167 29 -31 52 -29 79 8 l22 32 19 -23 c24
-29 17 -66 -18 -97 -48 -44 -126 -21 -138 39 -20 98 -10 127 87 257 41 54 87
121 103 150 16 28 32 51 35 51 8 0 68 -143 76 -181 11 -55 23 -40 23 28 0 37
-9 110 -20 162 -20 101 -68 241 -81 241 -4 0 -14 -24 -23 -52 -34 -117 -91
-214 -182 -308 -48 -50 -89 -88 -91 -86 -5 5 25 124 87 343 27 95 59 234 71
308 l23 135 39 -37 c21 -21 59 -65 84 -98z m-3428 -268 c14 -34 31 -27 31 14
0 31 11 37 29 15 7 -8 64 -49 128 -92 127 -85 153 -116 153 -182 0 -35 -6 -49
-29 -73 -73 -73 -163 -6 -116 85 20 37 7 51 -38 42 -66 -12 -117 -100 -117
-205 -1 -42 -2 -44 -15 -27 -8 10 -17 24 -20 30 -3 8 -7 7 -11 -1 -18 -39 -53
7 -54 68 0 47 25 145 42 166 7 9 2 23 -20 48 -55 61 -60 128 -14 178 18 20 15
24 51 -66z m4211 56 c33 -43 24 -122 -19 -167 l-31 -32 20 -47 c30 -67 36
-134 17 -180 -9 -20 -22 -37 -29 -37 -7 0 -20 -10 -27 -22 -14 -22 -15 -18
-28 55 -13 79 -39 143 -67 167 -9 7 -33 13 -54 14 -41 1 -41 0 -27 -77 6 -29
4 -42 -10 -57 -20 -22 -65 -26 -97 -9 -25 13 -48 67 -48 112 0 48 28 78 123
136 45 28 105 68 132 91 l50 40 5 -31 c8 -46 23 -39 39 19 8 28 17 52 22 52 4
0 17 -12 29 -27z m-1831 -399 c209 -42 261 -60 261 -91 0 -30 -103 -124 -174
-158 -39 -19 -72 -32 -74 -30 -2 2 6 17 19 34 12 17 21 33 18 35 -2 3 -30 -13
-63 -34 -101 -67 -165 -85 -291 -84 -124 1 -174 15 -286 83 -35 21 -66 37 -68
36 -2 -2 7 -18 19 -34 25 -36 18 -38 -45 -11 -116 50 -213 141 -185 175 14 17
84 38 254 75 115 25 153 28 310 29 154 1 196 -3 305 -25z m-1228 -256 c51
-101 134 -204 228 -285 63 -54 67 -59 97 -153 65 -198 165 -360 368 -595 19
-22 37 -37 40 -34 3 3 -32 81 -79 173 -74 146 -172 402 -160 415 3 2 29 -15
59 -37 179 -135 288 -278 342 -447 l22 -70 13 30 c83 197 158 318 246 391 113
95 165 135 170 130 15 -14 -112 -324 -198 -482 -27 -50 -49 -95 -49 -100 0
-24 186 187 259 295 63 93 129 227 161 329 l29 93 104 102 c86 85 189 217 210
269 11 26 25 -13 36 -101 47 -369 -78 -709 -366 -998 -47 -46 -87 -82 -90 -79
-3 3 18 42 47 87 67 104 103 182 134 291 24 84 45 238 33 238 -4 0 -21 -33
-40 -72 -65 -142 -207 -337 -393 -543 -118 -131 -216 -265 -261 -356 -21 -43
-41 -78 -44 -78 -4 -1 -14 19 -24 44 -21 56 -121 210 -184 285 -25 30 -95 109
-155 175 -154 169 -227 271 -299 417 -34 70 -66 127 -71 127 -11 1 1 -94 25
-197 25 -108 67 -207 136 -315 30 -48 53 -90 50 -93 -9 -9 -198 179 -242 241
-128 180 -217 447 -219 660 -1 100 22 285 35 285 5 0 18 -19 30 -42z"/>
<path d="M4332 7404 c-44 -31 -20 -85 45 -99 27 -5 37 -2 58 19 14 14 25 34
25 45 0 26 -37 51 -75 51 -17 0 -41 -7 -53 -16z"/>
<path d="M4586 7325 c-8 -26 -13 -51 -10 -56 3 -5 21 -9 40 -9 19 0 66 -5 105
-11 38 -6 75 -9 81 -7 18 6 -133 117 -169 124 -29 6 -31 4 -47 -41z"/>
<path d="M3595 7321 c-13 -16 -15 -25 -8 -32 8 -8 14 -5 23 10 17 32 7 46 -15
22z"/>
<path d="M3103 6668 c-79 -123 -150 -258 -198 -372 -25 -60 -44 -111 -41 -113
2 -2 46 39 97 92 95 98 201 182 318 250 l64 38 -42 20 c-53 25 -107 79 -123
123 -7 19 -16 34 -20 34 -5 0 -29 -33 -55 -72z m41 -110 c8 -13 8 -23 0 -35
-17 -28 -41 -27 -60 1 -13 22 -14 29 -4 42 16 19 49 15 64 -8z"/>
<path d="M3726 6325 c-10 -26 -7 -135 5 -200 21 -117 90 -205 198 -257 85 -41
193 -48 290 -21 86 24 92 43 14 43 -67 0 -156 21 -213 50 -60 31 -130 102
-124 125 4 15 -3 25 -26 38 -34 21 -82 97 -106 172 -20 59 -29 72 -38 50z"/>
<path d="M3403 3889 c-104 -55 -110 -61 -91 -91 9 -13 31 -40 49 -61 l34 -38
58 51 c60 54 64 64 51 143 -4 20 -10 37 -14 37 -5 0 -44 -18 -87 -41z"/>
<path d="M3502 3667 c-18 -18 -32 -38 -32 -43 0 -14 129 -138 136 -131 3 3 -6
35 -20 71 -15 36 -29 79 -32 96 -9 43 -16 44 -52 7z"/>
<path d="M6153 7408 c-30 -14 -33 -28 -17 -66 12 -29 17 -32 59 -32 62 0 85
14 85 50 0 51 -68 76 -127 48z"/>
<path d="M5900 7339 c-30 -16 -71 -46 -90 -66 l-35 -35 40 6 c97 15 197 34
201 39 3 3 0 23 -6 46 -13 51 -33 53 -110 10z"/>
<path d="M6980 7332 c0 -10 6 -26 13 -37 21 -28 32 0 13 30 -20 30 -26 31 -26
7z"/>
<path d="M7407 6689 c-15 -40 -27 -56 -64 -80 -26 -16 -55 -31 -65 -35 -28 -8
-22 -17 33 -48 82 -46 224 -156 315 -246 46 -46 87 -81 90 -77 8 8 -67 182
-127 296 -54 101 -145 241 -157 241 -4 0 -15 -23 -25 -51z m109 -136 c5 -19 2
-30 -11 -39 -24 -18 -55 -1 -55 30 0 29 7 36 36 36 17 0 25 -7 30 -27z"/>
<path d="M6825 6265 c-31 -85 -74 -150 -110 -167 -17 -8 -25 -19 -25 -36 0
-35 -69 -98 -147 -134 -47 -22 -83 -31 -143 -35 -94 -7 -99 -20 -19 -45 101
-31 234 -16 317 36 68 43 130 121 152 193 21 68 29 246 11 257 -5 3 -21 -28
-36 -69z"/>
<path d="M7090 3867 l0 -74 49 -41 c27 -23 54 -42 60 -42 12 0 91 97 91 110 0
9 -93 66 -167 104 l-33 17 0 -74z"/>
<path d="M7047 3678 c-41 -95 -73 -188 -65 -188 6 0 42 31 82 70 l71 69 -35
30 c-40 34 -46 36 -53 19z"/>
<path d="M4060 3527 c-14 -7 -26 -21 -28 -32 -3 -28 33 -83 64 -97 23 -11 28
-10 40 7 17 23 18 107 2 123 -15 15 -46 15 -78 -1z"/>
<path d="M6446 3525 c-3 -9 -6 -43 -6 -76 0 -50 3 -59 18 -59 28 0 61 28 83
72 25 49 16 64 -47 74 -33 5 -42 3 -48 -11z"/>
<path d="M3115 9865 c-753 -345 -1296 -757 -1812 -1375 -619 -743 -1010 -1633
-1142 -2605 -27 -198 -51 -530 -51 -705 0 -146 22 -493 41 -640 91 -716 364
-1439 784 -2075 370 -561 894 -1088 1450 -1460 422 -282 930 -531 1380 -675
848 -271 1656 -316 2520 -140 749 152 1498 489 2110 948 303 228 707 610 929
879 643 779 1032 1710 1131 2702 17 179 21 742 5 916 -94 1051 -443 1938
-1088 2768 -444 571 -977 1011 -1627 1342 -152 77 -395 185 -416 185 -6 0 12
-26 39 -57 42 -49 143 -194 154 -221 2 -5 64 -39 138 -76 447 -225 842 -515
1190 -872 393 -404 676 -807 930 -1326 448 -912 597 -1997 414 -3013 -28 -155
-86 -389 -140 -565 -172 -559 -414 -1040 -742 -1475 -253 -334 -618 -705 -953
-967 -741 -578 -1661 -952 -2599 -1055 -196 -21 -705 -24 -895 -5 -255 26
-595 90 -815 153 -990 283 -1807 785 -2483 1524 -594 650 -1008 1494 -1171
2387 -81 438 -92 1027 -30 1506 122 939 530 1859 1138 2562 214 248 499 522
710 684 224 173 479 332 733 459 l131 66 49 82 c26 44 72 110 101 145 29 35
47 64 40 63 -7 0 -76 -29 -153 -64z"/>
<path d="M7603 9438 c27 -108 39 -229 44 -475 l6 -272 70 -46 c38 -26 70 -45
72 -43 12 13 348 504 352 515 6 16 2 20 -130 109 -137 92 -388 234 -413 234
-3 0 -4 -10 -1 -22z"/>
<path d="M2910 9414 c-207 -115 -255 -143 -352 -206 -60 -39 -108 -76 -108
-83 0 -17 344 -525 356 -525 1 0 33 21 69 46 l65 46 0 131 c0 249 24 505 56
610 8 26 -13 21 -86 -19z"/>
<path d="M2260 8999 c-36 -27 -66 -55 -67 -62 -2 -7 78 -113 178 -237 99 -124
189 -236 199 -249 l17 -24 56 44 c31 24 56 47 56 51 1 4 -63 97 -142 205 -78
109 -162 226 -186 261 -24 34 -44 62 -45 62 -1 0 -30 -23 -66 -51z"/>
<path d="M8144 8878 c-70 -95 -157 -213 -193 -262 l-65 -89 55 -48 c29 -27 57
-49 60 -49 4 0 35 37 70 83 35 45 126 160 201 254 76 95 138 175 138 177 0 6
-126 106 -133 106 -3 0 -63 -78 -133 -172z"/>
<path d="M8439 8763 c-70 -82 -217 -259 -301 -364 l-37 -45 127 -130 c150
-153 291 -316 418 -483 5 -6 103 74 103 84 1 6 -31 50 -69 100 -45 58 -66 93
-60 99 6 6 33 10 62 11 l51 0 89 -118 c49 -64 87 -121 83 -127 -3 -5 -43 -35
-88 -66 -45 -32 -86 -61 -91 -65 -8 -7 61 -129 74 -129 6 0 230 142 463 294
l88 57 -20 32 c-86 136 -256 366 -368 496 -35 41 -47 39 -98 -23 l-37 -46 74
-92 c140 -175 235 -305 227 -312 -38 -29 -77 -56 -81 -56 -3 0 -27 28 -53 63
-121 155 -177 216 -216 231 -54 22 -118 20 -201 -5 l-70 -22 -104 105 -105
104 33 37 33 38 69 -61 c69 -59 70 -60 130 -60 l60 0 66 68 c36 37 83 88 104
114 l38 48 -32 40 c-33 42 -270 270 -280 270 -3 0 -40 -39 -81 -87z m150 -178
c22 -24 41 -48 41 -52 0 -5 -15 -25 -33 -46 l-32 -37 -54 48 -54 48 37 42 c21
23 42 42 46 42 4 0 26 -20 49 -45z"/>
<path d="M1911 8694 c-83 -80 -151 -151 -151 -156 0 -6 48 -60 107 -119 l107
-109 61 0 c62 0 62 0 128 60 l65 60 31 -35 c17 -20 31 -39 31 -43 0 -4 -45
-52 -101 -108 l-100 -101 -57 21 c-37 13 -84 20 -134 20 -96 1 -102 -3 -234
-165 -56 -68 -107 -125 -115 -126 -8 -2 -29 10 -48 26 l-35 28 49 69 c56 78
238 298 255 309 13 8 -76 105 -96 105 -25 0 -242 -269 -373 -464 -52 -76 -53
-79 -35 -96 25 -23 514 -340 525 -340 10 0 79 103 79 118 0 5 -40 39 -90 75
-49 37 -90 71 -90 76 0 5 40 60 88 123 l88 113 49 -3 c27 -1 53 -6 59 -12 5
-5 -14 -38 -50 -85 -96 -123 -92 -108 -36 -149 28 -20 52 -36 55 -36 3 0 60
64 125 143 65 78 187 213 271 300 102 107 149 163 143 170 -46 60 -185 229
-244 298 -128 150 -155 179 -165 179 -6 0 -78 -66 -162 -146z m187 -106 l33
-41 -48 -49 -47 -48 -40 40 -40 40 49 50 c27 27 52 50 55 49 3 0 20 -19 38
-41z"/>
<path d="M2865 8485 c-66 -48 -142 -106 -189 -147 -23 -19 8 -17 90 6 49 13
110 27 136 31 26 3 50 9 52 13 2 4 1 40 -2 81 l-7 73 -80 -57z"/>
<path d="M7640 8461 l0 -79 73 -9 c39 -6 107 -22 150 -36 43 -14 77 -22 75
-17 -7 17 -276 220 -292 220 -3 0 -6 -35 -6 -79z"/>
<path d="M2142 7791 c-140 -174 -219 -291 -342 -507 -225 -396 -386 -844 -459
-1281 -47 -277 -54 -368 -55 -693 -1 -275 2 -335 22 -475 40 -289 105 -571
186 -811 48 -142 117 -314 127 -314 5 0 18 19 30 42 51 100 209 355 311 502
l111 159 -17 131 c-9 73 -16 159 -16 193 0 33 -7 125 -15 204 -24 220 -4 439
63 694 l37 140 0 227 c0 124 -3 230 -8 234 -4 4 -13 -1 -21 -11 -13 -18 -14
-18 -19 1 -5 17 -58 300 -72 387 -5 30 -3 37 11 37 11 0 15 6 11 19 -2 10 4
29 14 42 24 31 24 42 -1 34 -16 -5 -23 0 -34 26 l-14 33 -16 -31 c-12 -24 -21
-30 -36 -26 -24 6 -28 -18 -5 -37 8 -7 15 -23 15 -36 0 -17 4 -22 16 -17 12 4
14 0 10 -18 -3 -13 -19 -80 -35 -149 -16 -69 -35 -154 -41 -190 -15 -82 -19
-88 -41 -59 l-17 24 -6 -25 c-3 -14 -12 -122 -19 -240 -12 -196 -15 -212 -27
-185 -13 28 -14 17 -22 -130 -4 -88 -9 -169 -11 -180 -4 -19 -5 -19 -12 3 -9
26 -20 29 -29 6 -9 -24 -23 -8 -30 36 -7 46 -22 52 -30 13 -20 -101 -28 -185
-33 -393 -6 -239 -8 -250 -45 -250 -15 0 -18 10 -18 65 0 67 -5 74 -42 54 -15
-8 -22 -8 -28 1 -5 8 -18 10 -33 6 -25 -6 -25 -6 -32 81 -8 94 0 383 16 556
21 240 89 566 170 814 115 355 301 735 499 1018 41 58 60 96 69 140 17 75 58
198 82 248 37 71 -1 36 -119 -112z"/>
<path d="M8320 7936 c0 -2 14 -34 31 -71 17 -37 39 -109 50 -159 18 -82 27
-101 88 -191 102 -150 156 -243 247 -425 274 -551 393 -999 425 -1610 10 -188
4 -440 -10 -440 -4 0 -12 5 -19 12 -9 9 -15 8 -25 -6 -11 -15 -17 -16 -35 -7
-36 19 -41 13 -44 -51 -3 -60 -4 -63 -31 -66 -16 -2 -29 2 -31 10 -3 7 -10
139 -15 293 -10 252 -18 339 -38 385 -8 19 -20 -28 -22 -85 l-1 -40 -20 25
c-17 22 -19 23 -25 7 -16 -40 -25 -11 -26 81 -2 135 -14 244 -24 215 -16 -49
-25 -19 -25 85 0 130 -19 374 -31 386 -4 5 -13 -2 -20 -17 -7 -15 -15 -27 -19
-27 -6 0 -74 296 -96 414 -6 34 -5 38 10 33 12 -5 16 0 16 22 0 15 9 36 20 46
27 24 25 33 -7 37 -19 2 -32 12 -41 31 l-14 29 -19 -31 c-13 -22 -26 -31 -46
-31 l-26 0 21 -23 c13 -14 22 -36 22 -56 0 -27 3 -31 19 -26 19 6 17 -6 -60
-382 -12 -60 -20 -65 -38 -26 -21 47 -31 7 -37 -159 l-6 -153 56 -220 c77
-303 83 -337 96 -530 10 -146 9 -181 -4 -250 -9 -44 -16 -127 -16 -185 0 -96
-11 -241 -25 -330 -5 -32 3 -46 89 -165 101 -139 236 -355 307 -495 24 -47 45
-87 47 -89 5 -10 15 13 69 155 108 287 195 620 227 864 33 260 39 347 38 600
0 640 -115 1148 -388 1731 -136 290 -277 512 -502 787 -75 92 -92 110 -92 98z"/>
<path d="M1146 7722 c-95 -150 -338 -648 -352 -720 l-5 -27 305 -99 c167 -54
310 -96 318 -94 8 3 31 46 52 94 21 49 88 191 149 317 61 125 108 228 106 230
-47 36 -533 337 -543 337 -3 0 -17 -17 -30 -38z m194 -352 c37 -26 65 -98 57
-146 -13 -78 -70 -124 -154 -124 -44 0 -58 5 -87 30 -63 56 -72 139 -21 206
15 19 41 41 58 49 41 19 110 11 147 -15z"/>
<path d="M9210 7632 c-113 -70 -236 -146 -273 -169 l-67 -43 82 -162 c45 -90
112 -233 149 -318 37 -85 73 -156 81 -158 14 -3 608 194 620 206 24 24 -341
773 -376 771 -6 0 -103 -57 -216 -127z m200 -250 c72 -36 104 -123 71 -196
-24 -56 -58 -78 -126 -84 -69 -6 -115 20 -145 84 -61 126 75 259 200 196z"/>
<path d="M9705 6810 c-166 -51 -456 -148 -472 -158 -9 -6 -8 -20 4 -62 8 -30
19 -59 23 -64 10 -10 19 -8 370 85 146 39 269 74 273 78 12 12 -37 156 -53
158 -8 1 -73 -16 -145 -37z"/>
<path d="M706 6763 c-14 -42 -24 -78 -23 -79 10 -10 601 -164 628 -164 12 0
23 17 38 62 12 34 18 65 14 69 -5 4 -91 33 -193 64 -102 31 -234 72 -294 91
-60 19 -117 34 -127 34 -13 0 -24 -20 -43 -77z"/>
<path d="M635 6538 c-43 -135 -147 -660 -133 -673 7 -7 216 -33 319 -41 l95
-6 18 98 c9 55 29 161 43 237 l27 139 55 -7 c31 -4 57 -8 59 -10 2 -1 -11 -74
-27 -161 -48 -252 -81 -525 -81 -671 l0 -33 -60 0 -61 0 7 139 7 138 -34 6
c-34 6 -241 24 -333 29 -47 2 -50 1 -58 -27 -16 -62 -30 -458 -20 -603 5 -78
11 -145 13 -147 4 -4 248 18 364 33 68 8 71 12 60 99 l-7 55 -133 -7 -133 -7
-7 108 c-7 94 0 318 10 334 2 3 29 3 60 0 l57 -5 -1 -132 c-1 -78 2 -141 9
-152 9 -18 22 -21 131 -23 l121 -3 3 -35 c2 -19 6 -84 10 -145 6 -112 25 -279
50 -459 8 -55 12 -103 9 -107 -5 -8 -70 -29 -90 -29 -12 0 -31 92 -59 289 -9
58 -17 106 -18 107 -3 2 -268 -32 -356 -45 -35 -6 -68 -14 -72 -18 -19 -19 68
-573 93 -599 7 -7 665 169 677 181 2 2 -6 56 -18 120 -38 202 -60 415 -67 631
-12 399 24 796 107 1152 24 102 24 98 -3 106 -52 14 -616 156 -622 156 -4 0
-8 -6 -11 -12z m183 -195 c18 -3 34 -8 36 -12 2 -3 -10 -82 -28 -176 l-32
-170 -39 3 c-77 6 -78 8 -71 70 7 57 55 281 63 295 3 5 12 5 22 2 9 -4 31 -9
49 -12z m-25 -1782 c21 -139 22 -135 -51 -146 -31 -5 -47 -3 -52 6 -7 11 -14
50 -36 216 -6 41 -6 42 27 46 19 2 47 4 64 3 l29 -1 19 -124z"/>
<path d="M9735 6504 c-249 -61 -419 -106 -427 -113 -3 -3 11 -90 32 -194 70
-340 90 -537 90 -898 0 -281 -12 -434 -51 -664 -17 -99 -32 -195 -33 -214 l-1
-35 80 -23 c44 -13 179 -50 300 -83 121 -33 235 -64 253 -69 26 -8 34 -6 41 8
22 41 91 460 91 552 0 27 -5 39 -17 43 -23 7 -367 56 -392 56 -14 0 -20 -10
-25 -47 -9 -67 -58 -337 -62 -342 -7 -8 -104 22 -104 32 0 7 5 39 10 72 25
148 50 387 56 534 4 89 10 161 15 161 4 0 30 -19 59 -42 l51 -43 -4 -97 c-4
-68 -2 -100 6 -105 16 -10 409 -53 421 -46 11 7 0 679 -12 738 -9 48 11 46
-267 25 -104 -8 -210 -15 -234 -15 l-44 0 -23 156 c-12 86 -34 216 -49 289
-15 72 -25 133 -23 135 2 2 27 8 56 13 39 7 55 6 57 -2 2 -6 20 -101 40 -211
20 -110 39 -212 41 -227 5 -25 10 -28 46 -28 45 0 370 40 377 46 12 11 -48
350 -95 536 -32 129 -40 148 -61 147 -10 0 -99 -20 -198 -45z m146 -289 c39
-198 39 -208 9 -216 -14 -4 -39 -7 -57 -8 -30 -1 -32 1 -42 52 -16 81 -51 291
-48 293 7 5 84 22 96 21 11 -2 23 -42 42 -142z m-162 -692 c25 -21 95 -83 155
-137 l109 -100 -6 -74 c-3 -41 -8 -77 -12 -80 -3 -3 -72 59 -153 139 -81 80
-168 162 -194 183 -37 28 -48 44 -48 65 0 37 6 41 58 41 37 0 53 -7 91 -37z
m220 -849 c5 -5 -28 -229 -36 -251 -4 -11 -16 -13 -47 -7 -66 11 -88 22 -82
42 2 9 12 66 22 125 l17 109 61 -7 c34 -4 63 -9 65 -11z"/>
<path d="M2158 4248 c-108 -133 -303 -448 -417 -676 -137 -273 -226 -503 -351
-907 l-59 -190 61 -80 c34 -44 65 -84 69 -89 4 -4 36 4 72 18 80 32 138 33
214 5 48 -19 79 -43 199 -161 79 -77 147 -137 152 -134 5 3 15 19 22 36 11 26
10 33 -4 49 -9 9 -16 20 -16 22 0 3 26 5 58 5 31 -1 78 3 104 7 l47 8 -55 -98
c-31 -54 -72 -131 -90 -170 -19 -40 -38 -73 -42 -73 -4 0 -88 81 -187 181
-196 197 -236 226 -305 214 -82 -14 -81 -20 28 -140 112 -124 390 -398 469
-463 l52 -43 80 159 c137 273 240 432 331 511 48 40 79 51 50 17 -6 -9 -10
-20 -8 -26 7 -21 135 115 165 175 60 119 103 288 103 403 l0 56 35 -34 c33
-32 35 -38 35 -96 0 -126 -56 -312 -136 -447 -27 -48 -86 -121 -154 -192 -60
-63 -137 -157 -171 -207 -60 -90 -209 -377 -209 -403 0 -24 275 -218 506 -358
134 -81 323 -182 329 -175 3 3 99 170 297 516 l100 174 -22 51 c-99 234 -211
376 -351 446 -44 22 -107 45 -140 52 -33 6 -58 15 -57 18 64 128 85 161 99
161 61 0 170 -60 213 -118 l19 -24 -32 7 c-17 3 -31 5 -31 2 0 -2 25 -21 55
-41 72 -50 172 -157 219 -234 21 -34 40 -62 43 -62 9 0 -5 115 -23 183 -55
214 -204 385 -381 438 -24 7 -43 16 -43 20 0 13 22 114 26 118 5 5 94 -62 220
-165 112 -92 186 -178 232 -269 37 -75 46 -102 77 -250 96 -459 344 -907 754
-1360 l120 -132 76 -12 c165 -24 334 -42 374 -39 l41 3 -67 90 c-93 125 -319
347 -503 494 -179 144 -345 306 -420 412 -97 138 -177 326 -194 454 l-7 50 20
-26 c11 -14 84 -104 162 -200 168 -206 272 -323 313 -352 28 -20 29 -20 22 -1
-15 39 -45 170 -52 228 -5 44 -4 57 5 52 6 -4 104 -130 216 -279 225 -299 261
-344 269 -337 2 3 -1 34 -9 70 -17 83 -29 200 -21 200 9 0 120 -172 186 -285
67 -117 248 -486 290 -595 39 -99 47 -110 56 -84 67 204 313 679 457 884 58
83 62 87 65 60 3 -27 -19 -174 -34 -229 -16 -57 22 -13 247 284 183 241 232
304 242 304 4 1 7 -10 7 -23 0 -36 -29 -180 -45 -226 -8 -22 -10 -40 -6 -40
17 0 192 194 352 390 90 110 165 198 167 196 8 -9 -53 -217 -84 -285 -99 -215
-235 -372 -525 -603 -192 -153 -336 -285 -439 -403 -88 -100 -165 -203 -158
-210 4 -4 226 17 377 36 l96 12 59 56 c153 145 391 440 517 642 159 257 250
475 328 797 55 226 96 307 216 428 98 99 327 276 340 263 2 -2 7 -32 10 -65
l7 -62 -58 -22 c-101 -37 -154 -72 -221 -144 -42 -46 -78 -97 -103 -150 -43
-90 -83 -232 -78 -280 3 -31 3 -31 42 29 49 76 143 174 212 221 51 35 71 60
39 48 -25 -10 -17 13 17 47 37 36 119 77 172 86 l35 6 38 -79 c20 -44 39 -82
40 -85 2 -4 -28 -14 -67 -23 -104 -23 -203 -79 -286 -161 -72 -71 -117 -140
-195 -296 l-42 -87 85 -153 c224 -401 300 -535 309 -544 18 -18 290 129 523
282 123 81 319 224 329 240 7 11 -165 353 -218 434 -24 37 -88 114 -142 171
-185 195 -264 362 -294 617 l-10 94 32 33 c40 41 50 43 43 6 -8 -40 13 -171
43 -272 33 -113 75 -192 131 -252 51 -55 86 -79 76 -53 -14 35 19 10 96 -73
110 -120 157 -193 269 -419 l96 -193 95 82 c52 46 133 119 179 163 115 109
351 365 351 380 0 7 -20 18 -45 25 -86 24 -105 12 -326 -207 l-198 -195 -56
113 c-32 63 -73 143 -93 178 l-35 64 29 -6 c16 -4 64 -10 107 -13 72 -6 76 -8
62 -24 -19 -21 -19 -29 1 -69 l16 -32 137 133 c195 191 274 226 406 179 33
-12 67 -24 76 -27 11 -4 34 19 77 76 34 45 62 89 62 97 0 18 -77 266 -152 488
-100 298 -240 620 -370 849 -97 172 -306 476 -327 476 -5 0 -14 -14 -20 -31
-66 -189 -235 -522 -358 -705 -144 -212 -317 -412 -508 -583 -212 -190 -307
-264 -640 -491 -291 -198 -426 -309 -628 -514 -64 -65 -120 -116 -123 -114 -8
9 31 157 64 242 17 42 25 76 20 76 -6 0 -59 -25 -118 -56 -224 -116 -425 -301
-581 -532 -71 -107 -150 -260 -189 -372 -13 -36 -27 -69 -31 -73 -4 -5 -15 15
-24 45 -132 399 -436 767 -780 943 -106 54 -121 57 -102 18 32 -64 94 -293 79
-293 -3 0 -56 51 -116 113 -214 218 -361 337 -746 607 -233 163 -295 209 -435
331 -395 343 -697 766 -896 1257 -29 72 -56 132 -60 132 -4 0 -22 -19 -41 -42z
m95 -525 c8 -21 42 -85 76 -143 l60 -105 -92 -6 c-95 -7 -174 -27 -240 -61
-22 -11 -41 -17 -44 -15 -2 3 8 24 23 47 32 48 88 84 159 101 28 6 53 15 58
18 4 4 -11 31 -33 61 -22 29 -40 58 -40 64 0 16 38 76 49 76 5 0 16 -17 24
-37z m6137 -4 l21 -41 -41 -54 c-22 -30 -39 -58 -36 -63 3 -5 22 -12 43 -16
66 -12 124 -46 164 -98 22 -27 38 -52 35 -54 -2 -2 -26 7 -53 20 -63 32 -162
56 -245 59 -38 2 -68 7 -68 12 0 4 32 63 70 130 39 67 70 127 70 134 0 25 20
11 40 -29z m-5953 -350 c21 -9 57 -47 103 -108 38 -52 70 -98 70 -102 0 -4
-24 8 -52 27 -199 130 -416 103 -580 -75 -58 -62 -92 -123 -103 -184 -4 -20
-11 -37 -16 -37 -27 0 12 201 57 296 40 84 135 153 264 190 56 17 212 12 257
-7z m6015 -8 c128 -49 191 -117 237 -258 26 -77 40 -193 23 -193 -6 0 -14 15
-17 33 -22 105 -137 235 -255 291 -57 27 -76 31 -155 31 -104 0 -174 -19 -250
-70 -27 -19 -51 -32 -53 -30 -2 1 29 46 70 99 63 84 78 99 118 111 65 21 208
14 282 -14z m-6039 -279 c101 -45 159 -141 165 -272 7 -151 -38 -277 -140
-386 -80 -85 -144 -116 -253 -122 -179 -9 -325 78 -399 238 -31 65 -34 140
-10 221 20 69 30 79 39 37 15 -70 76 -178 135 -238 118 -121 262 -151 371 -77
32 22 104 106 96 113 -2 3 -20 -3 -40 -11 -55 -23 -143 -19 -202 9 -92 42
-145 129 -145 236 0 199 202 332 383 252z m5989 -9 c60 -33 93 -70 126 -142
46 -101 17 -219 -73 -299 -26 -23 -62 -46 -82 -53 -36 -11 -154 -8 -185 6 -30
12 -20 -13 22 -59 115 -124 277 -109 419 39 44 46 73 89 101 149 22 46 40 89
40 95 0 6 4 11 8 11 10 0 29 -79 38 -153 13 -115 -87 -262 -224 -329 -63 -31
-73 -33 -172 -33 -94 0 -111 3 -162 28 -70 34 -166 134 -202 210 -56 119 -72
261 -40 367 21 72 109 162 180 184 66 21 144 13 206 -21z m-5565 -286 c-3 -73
-13 -159 -22 -192 -22 -83 -97 -234 -132 -267 -26 -25 -33 -27 -84 -21 l-55 5
45 48 c105 107 171 315 158 495 -6 76 -29 169 -48 190 -5 5 -9 14 -9 20 0 5
35 -25 76 -68 l77 -77 -6 -133z m5038 246 c-46 -113 -54 -302 -16 -423 32
-105 92 -216 147 -273 25 -27 44 -50 41 -53 -2 -3 -34 3 -70 12 -52 13 -71 23
-90 48 -99 131 -158 343 -142 510 7 66 10 72 64 132 56 63 79 79 66 47z m1160
-525 c7 -39 2 -44 -29 -32 -19 7 -20 22 -6 60 13 33 26 23 35 -28z m-7465 11
c14 -34 4 -49 -33 -49 -14 0 -17 5 -12 23 4 12 9 30 11 40 8 26 20 21 34 -14z
m1545 -548 c70 -35 121 -86 163 -166 24 -45 27 -61 27 -155 0 -117 -12 -158
-72 -241 -67 -95 -202 -157 -312 -145 -72 8 -167 55 -220 107 -22 23 -55 71
-73 107 -30 59 -33 76 -33 152 0 74 4 93 31 151 95 201 303 281 489 190z
m4641 -1 c79 -38 154 -119 185 -198 32 -78 31 -194 0 -275 -32 -81 -112 -166
-193 -203 -88 -40 -197 -41 -280 -2 -76 35 -138 95 -179 170 -33 60 -34 68
-34 168 0 93 3 112 27 162 89 190 294 267 474 178z"/>
<path d="M2231 2963 c-47 -24 -72 -62 -78 -115 -17 -150 172 -227 260 -106 28
38 33 114 10 157 -37 71 -124 100 -192 64z"/>
<path d="M8225 2971 c-35 -15 -75 -62 -85 -102 -30 -110 77 -215 183 -180 104
35 139 169 62 245 -42 42 -109 57 -160 37z"/>
<path d="M2909 1846 c-64 -17 -103 -48 -133 -108 -100 -200 111 -395 301 -279
86 53 116 198 60 293 -47 81 -137 117 -228 94z m91 -166 c27 -27 25 -46 -5
-76 -27 -27 -59 -26 -82 4 -45 57 36 123 87 72z"/>
<path d="M7488 1821 c-114 -73 -131 -250 -32 -343 148 -138 393 -2 355 197
-21 113 -98 175 -214 175 -52 0 -71 -5 -109 -29z m158 -147 c23 -34 9 -75 -30
-89 -25 -8 -31 -6 -52 18 -29 34 -30 51 -4 77 28 28 66 26 86 -6z"/>
<path d="M1225 4253 c-135 -38 -611 -186 -617 -192 -12 -11 33 -161 48 -161
15 0 655 208 662 215 6 5 -28 137 -37 146 -3 3 -28 0 -56 -8z"/>
<path d="M9289 4199 c-12 -39 -19 -73 -16 -76 13 -12 662 -222 668 -215 11 13
41 142 36 156 -3 7 -16 16 -29 18 -13 3 -144 42 -293 86 -148 44 -287 84 -307
90 l-38 10 -21 -69z"/>
<path d="M1130 3920 c-358 -123 -440 -154 -440 -167 0 -58 262 -683 286 -683
14 0 463 262 476 278 18 20 88 183 88 203 0 8 -33 94 -74 191 -41 98 -79 193
-86 212 -6 20 -15 38 -18 40 -4 2 -108 -31 -232 -74z m64 -220 c57 -28 79 -63
84 -130 4 -65 -18 -108 -70 -140 -81 -49 -202 4 -223 99 -18 85 63 185 154
190 8 1 33 -8 55 -19z"/>
<path d="M9227 3993 c-3 -5 -33 -78 -67 -163 -34 -85 -73 -181 -87 -212 l-25
-57 47 -109 47 -109 223 -127 c123 -70 232 -130 242 -132 16 -5 27 12 67 98
86 185 233 574 222 586 -9 9 -639 232 -656 232 -5 0 -11 -3 -13 -7z m288 -293
c107 -52 114 -208 13 -270 -93 -57 -220 15 -220 124 0 66 29 116 82 144 54 27
72 27 125 2z"/>
<path d="M9194 3145 c3 -9 41 -125 83 -256 43 -131 81 -239 85 -239 14 0 205
297 196 305 -13 12 -200 121 -268 156 -109 56 -104 55 -96 34z"/>
<path d="M1345 3133 c-98 -50 -305 -177 -305 -188 0 -13 152 -260 174 -283 9
-10 16 2 33 55 12 38 47 148 78 246 31 98 55 180 53 182 -1 2 -16 -4 -33 -12z"/>
<path d="M3525 1373 c-43 -76 -108 -190 -145 -253 -37 -63 -81 -141 -99 -173
l-33 -57 67 -31 c37 -17 73 -28 79 -26 7 3 46 67 86 143 41 77 104 195 141
263 l67 124 -36 73 c-20 41 -39 74 -43 74 -4 0 -42 -62 -84 -137z"/>
<path d="M6907 1432 l-37 -78 63 -120 c35 -65 99 -186 142 -269 43 -82 79
-151 80 -153 5 -6 138 53 142 64 2 6 -47 103 -110 215 -62 112 -139 252 -171
312 -32 59 -61 107 -65 107 -4 0 -24 -35 -44 -78z"/>
<path d="M3640 1003 c-63 -120 -115 -222 -115 -227 0 -25 692 -242 711 -223 3
3 -35 54 -84 114 -110 133 -232 303 -319 446 -37 59 -69 107 -72 107 -4 0 -58
-98 -121 -217z m209 -122 c28 -44 51 -82 51 -85 0 -3 -33 6 -72 20 -40 14 -79
28 -86 30 -9 3 -7 14 9 46 20 41 38 68 44 68 2 0 26 -36 54 -79z"/>
<path d="M6757 1165 c-69 -130 -222 -346 -374 -527 -40 -47 -73 -89 -73 -93 0
-19 339 73 555 150 72 26 138 49 148 52 9 3 17 10 17 16 0 15 -230 457 -238
457 -4 0 -20 -25 -35 -55z m56 -325 c-14 -13 -144 -52 -150 -46 -4 3 1 14 9
23 8 10 32 47 53 82 l38 64 29 -58 c16 -31 26 -61 21 -65z"/>
</g>
</svg>
